<svg width="134" height="124" viewBox="0 0 134 124" fill="none" xmlns="http://www.w3.org/2000/svg">
<g filter="url(#filter0_d_10_430)">
<path d="M87.4375 84.375H36.6562C30.334 84.375 24.8926 82.7012 20.916 79.5372C16.3906 75.9336 14 70.584 14 64.0625C14 51.9825 23.4609 45.4414 33.0918 44.0157C34.3652 35.9727 37.7793 29.0938 43.0742 24.0039C48.6948 18.5965 56.2006 15.5911 64 15.625C70.9336 15.625 77.3281 17.9082 82.4922 22.2266C86.4388 25.555 89.4774 29.8293 91.3242 34.6504C97.2344 35.5899 102.545 38.0059 106.438 41.5567C111.385 46.0704 114 52.2305 114 59.375C114 66.4063 111.191 72.8282 106.092 77.459C101.18 81.92 94.5547 84.375 87.4375 84.375Z" fill="white"/>
</g>
<path d="M67.7148 101.875C67.7148 103.255 68.0598 104.545 68.7648 105.73C69.4698 106.915 70.4148 107.875 71.6148 108.58C72.8148 109.285 74.1048 109.645 75.4998 109.645C76.8948 109.645 78.1998 109.285 79.4148 108.58C80.6049 107.895 81.5971 106.913 82.2948 105.73C82.9998 104.53 83.3598 103.255 83.3598 101.875C83.3598 100.975 83.1048 99.9099 82.5798 98.6649C82.0548 97.4199 81.4248 96.2649 80.6898 95.2149C80.0298 94.3599 79.2498 93.4149 78.3498 92.3949C77.4498 91.3749 75.8748 89.7999 75.5148 89.4399L73.5948 91.3749C72.6648 92.2749 71.7648 93.3099 70.9098 94.4949C70.0548 95.6799 69.3048 96.9549 68.6748 98.3199C68.0148 99.6849 67.7148 100.87 67.7148 101.875Z" fill="url(#paint0_linear_10_430)"/>
<path d="M21.7148 101.875C21.7148 103.255 22.0598 104.545 22.7648 105.73C23.4698 106.915 24.4148 107.875 25.6148 108.58C26.8148 109.285 28.1048 109.645 29.4998 109.645C30.8948 109.645 32.1998 109.285 33.4148 108.58C34.6049 107.895 35.5971 106.913 36.2948 105.73C36.9998 104.53 37.3598 103.255 37.3598 101.875C37.3598 100.975 37.1048 99.9099 36.5798 98.6649C36.0548 97.4199 35.4248 96.2649 34.6898 95.2149C34.0298 94.3599 33.2498 93.4149 32.3498 92.3949C31.4498 91.3749 29.8748 89.7999 29.5148 89.4399L27.5948 91.3749C26.6648 92.2749 25.7648 93.3099 24.9098 94.4949C24.0548 95.6799 23.3048 96.9549 22.6748 98.3199C22.0148 99.6849 21.7148 100.87 21.7148 101.875Z" fill="url(#paint1_linear_10_430)"/>
<path d="M44.7148 101.875C44.7148 103.255 45.0598 104.545 45.7648 105.73C46.4698 106.915 47.4148 107.875 48.6148 108.58C49.8148 109.285 51.1048 109.645 52.4998 109.645C53.8948 109.645 55.1998 109.285 56.4148 108.58C57.6049 107.895 58.5971 106.913 59.2948 105.73C59.9998 104.53 60.3598 103.255 60.3598 101.875C60.3598 100.975 60.1048 99.9099 59.5798 98.6649C59.0548 97.4199 58.4248 96.2649 57.6898 95.2149C57.0298 94.3599 56.2498 93.4149 55.3498 92.3949C54.4498 91.3749 52.8748 89.7999 52.5148 89.4399L50.5948 91.3749C49.6648 92.2749 48.7648 93.3099 47.9098 94.4949C47.0548 95.6799 46.3048 96.9549 45.6748 98.3199C45.0148 99.6849 44.7148 100.87 44.7148 101.875Z" fill="url(#paint2_linear_10_430)"/>
<path d="M90.7148 101.875C90.7148 103.255 91.0598 104.545 91.7648 105.73C92.4698 106.915 93.4148 107.875 94.6148 108.58C95.8148 109.285 97.1048 109.645 98.4998 109.645C99.8948 109.645 101.2 109.285 102.415 108.58C103.605 107.895 104.597 106.913 105.295 105.73C106 104.53 106.36 103.255 106.36 101.875C106.36 100.975 106.105 99.9099 105.58 98.6649C105.055 97.4199 104.425 96.2649 103.69 95.2149C103.03 94.3599 102.25 93.4149 101.35 92.3949C100.45 91.3749 98.8748 89.7999 98.5148 89.4399L96.5948 91.3749C95.6648 92.2749 94.7648 93.3099 93.9098 94.4949C93.0548 95.6799 92.3048 96.9549 91.6748 98.3199C91.0148 99.6849 90.7148 100.87 90.7148 101.875Z" fill="url(#paint3_linear_10_430)"/>
<defs>
<filter id="filter0_d_10_430" x="0.1" y="-10.9" width="133.8" height="133.8" filterUnits="userSpaceOnUse" color-interpolation-filters="sRGB">
<feFlood flood-opacity="0" result="BackgroundImageFix"/>
<feColorMatrix in="SourceAlpha" type="matrix" values="0 0 0 0 0 0 0 0 0 0 0 0 0 0 0 0 0 0 127 0" result="hardAlpha"/>
<feOffset dx="3" dy="6"/>
<feGaussianBlur stdDeviation="8.45"/>
<feComposite in2="hardAlpha" operator="out"/>
<feColorMatrix type="matrix" values="0 0 0 0 0 0 0 0 0 0 0 0 0 0 0 0 0 0 0.25 0"/>
<feBlend mode="normal" in2="BackgroundImageFix" result="effect1_dropShadow_10_430"/>
<feBlend mode="normal" in="SourceGraphic" in2="effect1_dropShadow_10_430" result="shape"/>
</filter>
<linearGradient id="paint0_linear_10_430" x1="75.5373" y1="89.4399" x2="75.5373" y2="109.645" gradientUnits="userSpaceOnUse">
<stop stop-color="#2BB8FF"/>
<stop offset="1" stop-color="#7252FF"/>
</linearGradient>
<linearGradient id="paint1_linear_10_430" x1="29.5373" y1="89.4399" x2="29.5373" y2="109.645" gradientUnits="userSpaceOnUse">
<stop stop-color="#2BB8FF"/>
<stop offset="1" stop-color="#7252FF"/>
</linearGradient>
<linearGradient id="paint2_linear_10_430" x1="52.5373" y1="89.4399" x2="52.5373" y2="109.645" gradientUnits="userSpaceOnUse">
<stop stop-color="#2BB8FF"/>
<stop offset="1" stop-color="#7252FF"/>
</linearGradient>
<linearGradient id="paint3_linear_10_430" x1="98.5373" y1="89.4399" x2="98.5373" y2="109.645" gradientUnits="userSpaceOnUse">
<stop stop-color="#2BB8FF"/>
<stop offset="1" stop-color="#7252FF"/>
</linearGradient>
</defs>
</svg>
