<svg width="34" height="34" viewBox="0 0 34 34" fill="none" xmlns="http://www.w3.org/2000/svg">
<g filter="url(#filter0_d_438_3154)">
<path d="M16.9998 3.3999C17.2252 3.3999 17.4414 3.48946 17.6009 3.64886C17.7603 3.80827 17.8498 4.02447 17.8498 4.2499V5.9499C17.8498 6.17534 17.7603 6.39154 17.6009 6.55094C17.4414 6.71035 17.2252 6.7999 16.9998 6.7999C16.7744 6.7999 16.5582 6.71035 16.3988 6.55094C16.2394 6.39154 16.1498 6.17534 16.1498 5.9499V4.2499C16.1498 4.02447 16.2394 3.80827 16.3988 3.64886C16.5582 3.48946 16.7744 3.3999 16.9998 3.3999ZM23.7998 16.9999C23.7998 18.8034 23.0834 20.533 21.8081 21.8082C20.5329 23.0835 18.8033 23.7999 16.9998 23.7999C15.1963 23.7999 13.4667 23.0835 12.1915 21.8082C10.9162 20.533 10.1998 18.8034 10.1998 16.9999C10.1998 15.1964 10.9162 13.4668 12.1915 12.1916C13.4667 10.9163 15.1963 10.1999 16.9998 10.1999C18.8033 10.1999 20.5329 10.9163 21.8081 12.1916C23.0834 13.4668 23.7998 15.1964 23.7998 16.9999ZM29.7498 17.8499C29.9752 17.8499 30.1914 17.7604 30.3509 17.6009C30.5103 17.4415 30.5998 17.2253 30.5998 16.9999C30.5998 16.7745 30.5103 16.5583 30.3509 16.3989C30.1914 16.2395 29.9752 16.1499 29.7498 16.1499H28.0498C27.8244 16.1499 27.6082 16.2395 27.4488 16.3989C27.2894 16.5583 27.1998 16.7745 27.1998 16.9999C27.1998 17.2253 27.2894 17.4415 27.4488 17.6009C27.6082 17.7604 27.8244 17.8499 28.0498 17.8499H29.7498ZM16.9998 27.1999C17.2252 27.1999 17.4414 27.2895 17.6009 27.4489C17.7603 27.6083 17.8498 27.8245 17.8498 28.0499V29.7499C17.8498 29.9753 17.7603 30.1915 17.6009 30.3509C17.4414 30.5104 17.2252 30.5999 16.9998 30.5999C16.7744 30.5999 16.5582 30.5104 16.3988 30.3509C16.2394 30.1915 16.1498 29.9753 16.1498 29.7499V28.0499C16.1498 27.8245 16.2394 27.6083 16.3988 27.4489C16.5582 27.2895 16.7744 27.1999 16.9998 27.1999ZM5.94981 17.8499C6.17525 17.8499 6.39145 17.7604 6.55085 17.6009C6.71026 17.4415 6.79981 17.2253 6.79981 16.9999C6.79981 16.7745 6.71026 16.5583 6.55085 16.3989C6.39145 16.2395 6.17525 16.1499 5.94981 16.1499H4.18691C3.96148 16.1499 3.74528 16.2395 3.58587 16.3989C3.42647 16.5583 3.33691 16.7745 3.33691 16.9999C3.33691 17.2253 3.42647 17.4415 3.58587 17.6009C3.74528 17.7604 3.96148 17.8499 4.18691 17.8499H5.94981ZM7.04801 7.0481C7.12697 6.96894 7.22077 6.90614 7.32404 6.86329C7.4273 6.82044 7.53801 6.79838 7.64981 6.79838C7.76162 6.79838 7.87232 6.82044 7.97559 6.86329C8.07886 6.90614 8.17266 6.96894 8.25161 7.0481L9.95161 8.7481C10.1112 8.90771 10.2009 9.12418 10.2009 9.3499C10.2009 9.57562 10.1112 9.7921 9.95161 9.9517C9.79201 10.1113 9.57553 10.201 9.34981 10.201C9.1241 10.201 8.90762 10.1113 8.74801 9.9517L7.04801 8.2517C6.96886 8.17275 6.90605 8.07895 6.8632 7.97568C6.82035 7.87241 6.79829 7.76171 6.79829 7.6499C6.79829 7.5381 6.82035 7.42739 6.8632 7.32413C6.90605 7.22086 6.96886 7.12706 7.04801 7.0481ZM8.25161 26.9517C8.09201 27.1113 7.87553 27.201 7.64981 27.201C7.4241 27.201 7.20762 27.1113 7.04801 26.9517C6.88841 26.7921 6.79874 26.5756 6.79874 26.3499C6.79874 26.1242 6.88841 25.9077 7.04801 25.7481L8.74801 24.0481C8.90762 23.8885 9.1241 23.7988 9.34981 23.7988C9.57553 23.7988 9.79201 23.8885 9.95161 24.0481C10.1112 24.2077 10.2009 24.4242 10.2009 24.6499C10.2009 24.8756 10.1112 25.0921 9.95161 25.2517L8.25161 26.9517ZM26.9516 7.0481C26.8727 6.96894 26.7789 6.90614 26.6756 6.86329C26.5723 6.82044 26.4616 6.79838 26.3498 6.79838C26.238 6.79838 26.1273 6.82044 26.024 6.86329C25.9208 6.90614 25.827 6.96894 25.748 7.0481L24.048 8.7481C23.8884 8.90771 23.7987 9.12418 23.7987 9.3499C23.7987 9.57562 23.8884 9.7921 24.048 9.9517C24.2076 10.1113 24.4241 10.201 24.6498 10.201C24.8755 10.201 25.092 10.1113 25.2516 9.9517L26.9516 8.2517C27.0308 8.17275 27.0936 8.07895 27.1364 7.97568C27.1793 7.87241 27.2013 7.76171 27.2013 7.6499C27.2013 7.5381 27.1793 7.42739 27.1364 7.32413C27.0936 7.22086 27.0308 7.12706 26.9516 7.0481ZM25.748 26.9517C25.9076 27.1113 26.1241 27.201 26.3498 27.201C26.5755 27.201 26.792 27.1113 26.9516 26.9517C27.1112 26.7921 27.2009 26.5756 27.2009 26.3499C27.2009 26.1242 27.1112 25.9077 26.9516 25.7481L25.2516 24.0481C25.092 23.8885 24.8755 23.7988 24.6498 23.7988C24.4241 23.7988 24.2076 23.8885 24.048 24.0481C23.8884 24.2077 23.7987 24.4242 23.7987 24.6499C23.7987 24.8756 23.8884 25.0921 24.048 25.2517L25.748 26.9517Z" fill="url(#paint0_linear_438_3154)"/>
</g>
<defs>
<filter id="filter0_d_438_3154" x="3.33691" y="3.3999" width="28.2627" height="28.2002" filterUnits="userSpaceOnUse" color-interpolation-filters="sRGB">
<feFlood flood-opacity="0" result="BackgroundImageFix"/>
<feColorMatrix in="SourceAlpha" type="matrix" values="0 0 0 0 0 0 0 0 0 0 0 0 0 0 0 0 0 0 127 0" result="hardAlpha"/>
<feOffset dx="1" dy="1"/>
<feComposite in2="hardAlpha" operator="out"/>
<feColorMatrix type="matrix" values="0 0 0 0 0 0 0 0 0 0 0 0 0 0 0 0 0 0 0.25 0"/>
<feBlend mode="normal" in2="BackgroundImageFix" result="effect1_dropShadow_438_3154"/>
<feBlend mode="normal" in="SourceGraphic" in2="effect1_dropShadow_438_3154" result="shape"/>
</filter>
<linearGradient id="paint0_linear_438_3154" x1="3.33691" y1="16.9999" x2="30.5998" y2="16.9999" gradientUnits="userSpaceOnUse">
<stop offset="0.36" stop-color="#FFC6B3"/>
<stop offset="0.695" stop-color="#FFE58F"/>
</linearGradient>
</defs>
</svg>
