<svg width="30" height="30" viewBox="0 0 30 30" fill="none" xmlns="http://www.w3.org/2000/svg">
<path d="M15 21.25C18.4518 21.25 21.25 18.4518 21.25 15C21.25 11.5482 18.4518 8.75 15 8.75C11.5482 8.75 8.75 11.5482 8.75 15C8.75 18.4518 11.5482 21.25 15 21.25Z" fill="#FFB236"/>
<path d="M22.5 26.25H7.5C7.16848 26.25 6.85054 26.1183 6.61612 25.8839C6.3817 25.6495 6.25 25.3315 6.25 25C6.25 24.6685 6.3817 24.3505 6.61612 24.1161C6.85054 23.8817 7.16848 23.75 7.5 23.75H22.5C22.8315 23.75 23.1495 23.8817 23.3839 24.1161C23.6183 24.3505 23.75 24.6685 23.75 25C23.75 25.3315 23.6183 25.6495 23.3839 25.8839C23.1495 26.1183 22.8315 26.25 22.5 26.25ZM26.25 21.25H3.75C3.41848 21.25 3.10054 21.1183 2.86612 20.8839C2.6317 20.6495 2.5 20.3315 2.5 20C2.5 19.6685 2.6317 19.3505 2.86612 19.1161C3.10054 18.8817 3.41848 18.75 3.75 18.75H26.25C26.5815 18.75 26.8995 18.8817 27.1339 19.1161C27.3683 19.3505 27.5 19.6685 27.5 20C27.5 20.3315 27.3683 20.6495 27.1339 20.8839C26.8995 21.1183 26.5815 21.25 26.25 21.25ZM26.25 16.25H25C24.6685 16.25 24.3505 16.1183 24.1161 15.8839C23.8817 15.6495 23.75 15.3315 23.75 15C23.75 14.6685 23.8817 14.3505 24.1161 14.1161C24.3505 13.8817 24.6685 13.75 25 13.75H26.25C26.5815 13.75 26.8995 13.8817 27.1339 14.1161C27.3683 14.3505 27.5 14.6685 27.5 15C27.5 15.3315 27.3683 15.6495 27.1339 15.8839C26.8995 16.1183 26.5815 16.25 26.25 16.25ZM5 16.25H3.75C3.41848 16.25 3.10054 16.1183 2.86612 15.8839C2.6317 15.6495 2.5 15.3315 2.5 15C2.5 14.6685 2.6317 14.3505 2.86612 14.1161C3.10054 13.8817 3.41848 13.75 3.75 13.75H5C5.33152 13.75 5.64946 13.8817 5.88388 14.1161C6.1183 14.3505 6.25 14.6685 6.25 15C6.25 15.3315 6.1183 15.6495 5.88388 15.8839C5.64946 16.1183 5.33152 16.25 5 16.25ZM22.075 9.175C21.7645 9.16094 21.4704 9.0317 21.25 8.8125C21.1328 8.6963 21.0398 8.55804 20.9764 8.40572C20.9129 8.2534 20.8802 8.09001 20.8802 7.925C20.8802 7.75999 20.9129 7.5966 20.9764 7.44428C21.0398 7.29195 21.1328 7.1537 21.25 7.0375L22.125 6.1625C22.3604 5.92712 22.6796 5.79489 23.0125 5.79489C23.3454 5.79489 23.6646 5.92712 23.9 6.1625C24.1354 6.39788 24.2676 6.71712 24.2676 7.05C24.2676 7.38288 24.1354 7.70212 23.9 7.9375L23.025 8.8125C22.9009 8.93611 22.7522 9.03226 22.5885 9.09471C22.4249 9.15716 22.2499 9.18451 22.075 9.175ZM7.925 9.175C7.76049 9.17595 7.59741 9.14442 7.44512 9.08221C7.29282 9.02001 7.1543 8.92835 7.0375 8.8125L6.1625 7.9375C5.92712 7.70212 5.79489 7.38288 5.79489 7.05C5.79489 6.71712 5.92712 6.39788 6.1625 6.1625C6.39788 5.92712 6.71712 5.79489 7.05 5.79489C7.38288 5.79489 7.70212 5.92712 7.9375 6.1625L8.8125 7.0375C8.92966 7.1537 9.02265 7.29195 9.08611 7.44428C9.14957 7.5966 9.18225 7.75999 9.18225 7.925C9.18225 8.09001 9.14957 8.2534 9.08611 8.40572C9.02265 8.55804 8.92966 8.6963 8.8125 8.8125C8.6957 8.92835 8.55718 9.02001 8.40488 9.08221C8.25259 9.14442 8.08951 9.17595 7.925 9.175ZM15 6.25C14.6685 6.25 14.3505 6.1183 14.1161 5.88388C13.8817 5.64946 13.75 5.33152 13.75 5V3.75C13.75 3.41848 13.8817 3.10054 14.1161 2.86612C14.3505 2.6317 14.6685 2.5 15 2.5C15.3315 2.5 15.6495 2.6317 15.8839 2.86612C16.1183 3.10054 16.25 3.41848 16.25 3.75V5C16.25 5.33152 16.1183 5.64946 15.8839 5.88388C15.6495 6.1183 15.3315 6.25 15 6.25Z" fill="#FFE352"/>
</svg>
