<svg width="412" height="412" viewBox="0 0 412 412" fill="none" xmlns="http://www.w3.org/2000/svg">
<mask id="mask0_459_4050" style="mask-type:luminance" maskUnits="userSpaceOnUse" x="14" y="14" width="384" height="384">
<path d="M14 14H398V206H278C258.904 206 240.591 213.586 227.088 227.088C213.586 240.591 206 258.904 206 278V398H14V14Z" fill="white"/>
</mask>
<g mask="url(#mask0_459_4050)">
<mask id="mask1_459_4050" style="mask-type:luminance" maskUnits="userSpaceOnUse" x="14" y="14" width="384" height="384">
<path d="M398 14H14V398H398V14Z" fill="white"/>
</mask>
<g mask="url(#mask1_459_4050)">
<path d="M206 290C252.392 290 290 252.392 290 206C290 159.608 252.392 122 206 122C159.608 122 122 159.608 122 206C122 252.392 159.608 290 206 290Z" fill="url(#paint0_linear_459_4050)" stroke="#F8AF18" stroke-width="6" stroke-miterlimit="10"/>
<path d="M206 75.7V26M206 386V336.3M298.2 113.8L333.2 78.8M78.8 333.2L113.9 298.1M113.9 113.7L78.9 78.7M333.4 333.2L298.3 298.1M75.7 206H26M386 206H336.3" stroke="#FBBF24" stroke-width="24" stroke-miterlimit="10" stroke-linecap="round"/>
</g>
<path d="M204 288V278C204 258.374 211.796 239.552 225.674 225.674C239.552 211.796 258.374 204 278 204H288" stroke="#F8AF18" stroke-width="6" stroke-miterlimit="10"/>
</g>
<path d="M328 234H280C253.49 234 232 255.49 232 282V330C232 356.51 253.49 378 280 378H328C354.51 378 376 356.51 376 330V282C376 255.49 354.51 234 328 234Z" fill="#FFC500"/>
<path d="M317.501 303.2C321.661 303.767 325.486 305.786 328.301 308.9C330.917 312.031 332.271 316.024 332.101 320.1C332.15 323.089 331.529 326.05 330.283 328.767C329.037 331.484 327.198 333.887 324.901 335.8C320.034 339.933 313.268 342 304.601 342C295.534 342 288.534 339.767 283.601 335.3C278.668 330.833 276.068 324.633 275.801 316.7H292.301C292.701 324.5 296.601 328.4 304.001 328.4C306.772 328.547 309.504 327.695 311.701 326C312.629 325.199 313.363 324.198 313.848 323.072C314.333 321.946 314.557 320.725 314.501 319.5C314.582 318.252 314.351 317.004 313.827 315.869C313.303 314.734 312.503 313.748 311.501 313C309.005 311.395 306.063 310.625 303.101 310.8H298.201V298.8H303.401C306.401 298.8 308.701 298.2 310.401 296.8C311.211 296.097 311.849 295.218 312.265 294.229C312.681 293.241 312.864 292.17 312.801 291.1C312.865 290.015 312.682 288.929 312.266 287.925C311.851 286.92 311.213 286.023 310.401 285.3C308.701 283.9 306.401 283.3 303.401 283.3C300.401 283.3 298.201 284 296.601 285.4C295.001 286.8 294.201 289.3 293.901 292.6H278.001C278.668 277.533 287.334 270 304.001 270C311.868 270 318.034 271.733 322.501 275.2C324.588 276.724 326.277 278.729 327.426 281.044C328.574 283.359 329.149 285.916 329.101 288.5C329.175 291.849 328.118 295.125 326.101 297.8C323.938 300.533 320.902 302.439 317.501 303.2Z" fill="white"/>
<defs>
<linearGradient id="paint0_linear_459_4050" x1="164" y1="133.2" x2="248" y2="278.8" gradientUnits="userSpaceOnUse">
<stop stop-color="#FBBF24"/>
<stop offset="0.5" stop-color="#FBBF24"/>
<stop offset="1" stop-color="#F59E0B"/>
</linearGradient>
</defs>
</svg>
