<svg width="150" height="150" viewBox="0 0 150 150" fill="none" xmlns="http://www.w3.org/2000/svg">
<path d="M73.6446 148.193C114.317 148.193 147.289 115.221 147.289 74.5482C147.289 33.8754 114.317 0.90361 73.6446 0.90361C32.9718 0.90361 0 33.8754 0 74.5482C0 115.221 32.9718 148.193 73.6446 148.193Z" fill="url(#paint0_linear_1_46)" fill-opacity="0.8"/>
<path d="M52.8493 65.4706C53.1008 59.1811 50.0705 53.9531 46.0807 53.7935C42.091 53.6339 38.6527 58.6032 38.4011 64.8927C38.1496 71.1821 41.1799 76.4101 45.1697 76.5697C49.1594 76.7293 52.5977 71.76 52.8493 65.4706Z" fill="#00305F"/>
<path d="M101.991 76.9942C105.977 76.8202 108.986 71.5853 108.712 65.3019C108.438 59.0184 104.984 54.0657 100.998 54.2397C97.012 54.4137 94.0031 59.6486 94.2775 65.9321C94.5518 72.2156 98.0055 77.1683 101.991 76.9942Z" fill="#00305F"/>
<rect x="38.2817" y="96.3809" width="70.4181" height="13.2226" rx="6.6113" fill="#00305F"/>
<path d="M49.9202 67.3104C51.0407 67.3104 51.9489 66.4021 51.9489 65.2817C51.9489 64.1613 51.0407 63.253 49.9202 63.253C48.7998 63.253 47.8916 64.1613 47.8916 65.2817C47.8916 66.4021 48.7998 67.3104 49.9202 67.3104Z" fill="white"/>
<path d="M97.8118 67.3104C98.9322 67.3104 99.8405 66.4021 99.8405 65.2817C99.8405 64.1613 98.9322 63.253 97.8118 63.253C96.6914 63.253 95.7831 64.1613 95.7831 65.2817C95.7831 66.4021 96.6914 67.3104 97.8118 67.3104Z" fill="white"/>
<defs>
<linearGradient id="paint0_linear_1_46" x1="0" y1="74.5482" x2="147.289" y2="74.5482" gradientUnits="userSpaceOnUse">
<stop stop-color="#00B342"/>
<stop offset="1" stop-color="#006826"/>
</linearGradient>
</defs>
</svg>
