<svg width="200" height="200" viewBox="0 0 200 200" fill="none" xmlns="http://www.w3.org/2000/svg">
<g clip-path="url(#clip0_17_51)">
<path d="M100 175C141.421 175 175 141.421 175 100C175 58.5786 141.421 25 100 25C58.5786 25 25 58.5786 25 100C25 141.421 58.5786 175 100 175Z" fill="url(#paint0_linear_17_51)" fill-opacity="0.8"/>
<path d="M78.8228 90.7554C79.079 84.3502 75.9929 79.026 71.9297 78.8635C67.8666 78.701 64.365 83.7617 64.1088 90.1669C63.8526 96.5721 66.9387 101.896 71.0019 102.059C75.0651 102.221 78.5666 97.1607 78.8228 90.7554Z" fill="#00305F"/>
<path d="M75.7418 93.1438C76.8622 93.1438 77.7705 92.2356 77.7705 91.1151C77.7705 89.9947 76.8622 89.0865 75.7418 89.0865C74.6214 89.0865 73.7131 89.9947 73.7131 91.1151C73.7131 92.2356 74.6214 93.1438 75.7418 93.1438Z" fill="white"/>
<path d="M128.868 102.491C132.927 102.314 135.991 96.9826 135.712 90.5835C135.432 84.1844 131.915 79.1405 127.856 79.3178C123.797 79.495 120.732 84.8262 121.012 91.2253C121.291 97.6245 124.808 102.668 128.868 102.491Z" fill="#00305F"/>
<path d="M124.259 93.1438C125.379 93.1438 126.287 92.2355 126.287 91.1151C126.287 89.9947 125.379 89.0864 124.259 89.0864C123.138 89.0864 122.23 89.9947 122.23 91.1151C122.23 92.2355 123.138 93.1438 124.259 93.1438Z" fill="white"/>
<path d="M113.443 133.058C112.911 133.057 112.386 132.94 111.904 132.715C106.71 130.32 101.467 129.098 96.3219 129.098C91.1768 129.098 85.9341 130.32 80.7402 132.715C79.8569 133.124 78.8476 133.165 77.9343 132.829C77.021 132.493 76.2785 131.808 75.8701 130.925C75.4617 130.042 75.4209 129.033 75.7567 128.119C76.0924 127.206 76.7772 126.463 77.6605 126.055C90.0403 120.348 102.603 120.348 114.983 126.055C115.735 126.411 116.345 127.012 116.711 127.76C117.077 128.507 117.18 129.356 117.001 130.169C116.822 130.982 116.373 131.71 115.727 132.235C115.081 132.76 114.276 133.05 113.443 133.058Z" fill="#00305F"/>
<path d="M76.5107 142.077C75.6419 142.082 74.8003 141.774 74.1399 141.209C73.7731 140.897 73.4713 140.516 73.2519 140.087C73.0325 139.658 72.8997 139.191 72.8611 138.711C72.8225 138.231 72.8789 137.748 73.027 137.289C73.1752 136.831 73.4121 136.407 73.7244 136.04C74.448 135.184 74.9901 134.19 75.3178 133.118C75.6456 132.046 75.7521 130.919 75.631 129.804C75.5098 128.69 75.1635 127.612 74.6131 126.636C74.0627 125.659 73.3196 124.805 72.4289 124.124C72.0192 123.843 71.671 123.481 71.4055 123.061C71.1401 122.64 70.9628 122.17 70.8846 121.679C70.8064 121.188 70.8289 120.687 70.9507 120.205C71.0724 119.723 71.291 119.271 71.5929 118.876C71.8949 118.481 72.2741 118.151 72.7073 117.908C73.1406 117.664 73.6189 117.511 74.1132 117.457C74.6075 117.404 75.1074 117.452 75.5826 117.598C76.0578 117.744 76.4983 117.986 76.8774 118.307C78.9776 119.913 80.638 122.023 81.7046 124.442C82.8732 127.119 83.2681 130.07 82.8447 132.96C82.4214 135.851 81.1966 138.564 79.3093 140.794C78.9633 141.197 78.5339 141.521 78.0508 141.742C77.5676 141.964 77.0422 142.078 76.5107 142.077Z" fill="#00305F"/>
</g>
<defs>
<linearGradient id="paint0_linear_17_51" x1="25" y1="100" x2="175" y2="100" gradientUnits="userSpaceOnUse">
<stop stop-color="#FFC500"/>
<stop offset="1" stop-color="#FFFF00"/>
</linearGradient>
<clipPath id="clip0_17_51">
<rect width="150" height="150" fill="white" transform="translate(25 25)"/>
</clipPath>
</defs>
</svg>
