<svg width="150" height="150" viewBox="0 0 150 150" fill="none" xmlns="http://www.w3.org/2000/svg">
<g clip-path="url(#clip0_1_47)">
<path d="M75 150C116.421 150 150 116.421 150 75C150 33.5786 116.421 0 75 0C33.5786 0 0 33.5786 0 75C0 116.421 33.5786 150 75 150Z" fill="url(#paint0_linear_1_47)" fill-opacity="0.8"/>
<path d="M53.8228 65.7554C54.079 59.3502 50.9929 54.026 46.9297 53.8635C42.8666 53.7009 39.365 58.7616 39.1088 65.1669C38.8526 71.5721 41.9387 76.8963 46.0019 77.0588C50.0651 77.2214 53.5666 72.1607 53.8228 65.7554Z" fill="#00305F"/>
<path d="M50.7418 68.1438C51.8622 68.1438 52.7705 67.2356 52.7705 66.1151C52.7705 64.9947 51.8622 64.0865 50.7418 64.0865C49.6214 64.0865 48.7131 64.9947 48.7131 66.1151C48.7131 67.2356 49.6214 68.1438 50.7418 68.1438Z" fill="white"/>
<path d="M103.868 77.4911C107.927 77.3138 110.991 71.9826 110.712 65.5835C110.432 59.1844 106.915 54.1405 102.856 54.3178C98.7966 54.495 95.7324 59.8262 96.0118 66.2253C96.2912 72.6245 99.8084 77.6683 103.868 77.4911Z" fill="#00305F"/>
<path d="M99.2586 68.1438C100.379 68.1438 101.287 67.2355 101.287 66.1151C101.287 64.9947 100.379 64.0864 99.2586 64.0864C98.1382 64.0864 97.23 64.9947 97.23 66.1151C97.23 67.2355 98.1382 68.1438 99.2586 68.1438Z" fill="white"/>
<path d="M88.4434 108.058C87.9114 108.057 87.3858 107.94 86.9036 107.715C81.7097 105.32 76.4669 104.098 71.3219 104.098C66.1768 104.098 60.9341 105.32 55.7402 107.715C54.8569 108.124 53.8476 108.165 52.9343 107.829C52.021 107.493 51.2785 106.808 50.8701 105.925C50.4617 105.042 50.4209 104.033 50.7567 103.119C51.0924 102.206 51.7772 101.463 52.6605 101.055C65.0403 95.3478 77.6034 95.3478 89.9833 101.055C90.7354 101.411 91.3445 102.012 91.711 102.76C92.0775 103.507 92.1797 104.356 92.0009 105.169C91.8222 105.982 91.373 106.71 90.7269 107.235C90.0807 107.76 89.2757 108.05 88.4434 108.058Z" fill="#00305F"/>
<path d="M51.5107 117.077C50.6419 117.082 49.8003 116.774 49.1399 116.209C48.7731 115.897 48.4713 115.516 48.2519 115.087C48.0325 114.658 47.8997 114.191 47.8611 113.711C47.8225 113.231 47.8789 112.748 48.027 112.289C48.1752 111.831 48.4121 111.407 48.7244 111.04C49.448 110.184 49.9901 109.19 50.3178 108.118C50.6456 107.046 50.7521 105.919 50.631 104.804C50.5098 103.69 50.1635 102.612 49.6131 101.636C49.0627 100.659 48.3196 99.8049 47.4289 99.1244C47.0192 98.8429 46.671 98.4809 46.4055 98.0606C46.1401 97.6403 45.9628 97.1704 45.8846 96.6794C45.8064 96.1885 45.8289 95.6868 45.9507 95.2048C46.0724 94.7228 46.291 94.2706 46.5929 93.8757C46.8949 93.4808 47.2741 93.1514 47.7073 92.9076C48.1406 92.6638 48.6189 92.5107 49.1132 92.4575C49.6075 92.4043 50.1074 92.4522 50.5826 92.5983C51.0578 92.7444 51.4983 92.9856 51.8774 93.3072C53.9776 94.9129 55.638 97.0232 56.7046 99.4422C57.8732 102.119 58.2681 105.07 57.8447 107.96C57.4214 110.851 56.1966 113.564 54.3093 115.794C53.9633 116.197 53.5339 116.521 53.0508 116.742C52.5676 116.964 52.0422 117.078 51.5107 117.077Z" fill="#00305F"/>
</g>
<defs>
<linearGradient id="paint0_linear_1_47" x1="0" y1="75" x2="150" y2="75" gradientUnits="userSpaceOnUse">
<stop stop-color="#FFC500"/>
<stop offset="1" stop-color="#FFFF00"/>
</linearGradient>
<clipPath id="clip0_1_47">
<rect width="150" height="150" fill="white"/>
</clipPath>
</defs>
</svg>
