<svg width="150" height="150" viewBox="0 0 150 150" fill="none" xmlns="http://www.w3.org/2000/svg">
<g clip-path="url(#clip0_1_48)">
<path d="M75 150C116.421 150 150 116.421 150 75C150 33.5786 116.421 0 75 0C33.5786 0 0 33.5786 0 75C0 116.421 33.5786 150 75 150Z" fill="url(#paint0_linear_1_48)" fill-opacity="0.8"/>
<path d="M61.3865 66.2983C61.1054 72.702 57.598 77.7493 53.5284 77.566C49.4588 77.3827 46.4036 72.0666 46.6847 65.6628C46.9658 59.259 50.4732 64.1596 54.5428 64.3307C58.6123 64.5018 61.6676 59.8945 61.3865 66.2983Z" fill="#484848"/>
<path d="M56.8756 72.3483C57.996 72.3483 58.9043 71.44 58.9043 70.3196C58.9043 69.1992 57.996 68.2909 56.8756 68.2909C55.7552 68.2909 54.8469 69.1992 54.8469 70.3196C54.8469 71.44 55.7552 72.3483 56.8756 72.3483Z" fill="white"/>
<path d="M88.6136 66.2983C88.8947 72.702 92.4021 77.7493 96.4717 77.566C100.541 77.3827 103.597 72.0666 103.315 65.6628C103.034 59.259 99.527 64.1596 95.4574 64.3307C91.3878 64.5018 88.3326 59.8945 88.6136 66.2983Z" fill="#484848"/>
<path d="M93.1226 72.3483C94.243 72.3483 95.1512 71.44 95.1512 70.3196C95.1512 69.1992 94.243 68.2909 93.1226 68.2909C92.0022 68.2909 91.0939 69.1992 91.0939 70.3196C91.0939 71.44 92.0022 72.3483 93.1226 72.3483Z" fill="white"/>
<path d="M112.921 66.9714H37.078C36.1056 66.9714 35.1731 66.5851 34.4855 65.8975C33.798 65.21 33.4117 64.2774 33.4117 63.3051C33.4117 62.3327 33.798 61.4002 34.4855 60.7126C35.1731 60.0251 36.1056 59.6388 37.078 59.6388H112.921C113.894 59.6388 114.826 60.0251 115.514 60.7126C116.201 61.4002 116.588 62.3327 116.588 63.3051C116.588 64.2774 116.201 65.21 115.514 65.8975C114.826 66.5851 113.894 66.9714 112.921 66.9714Z" fill="#484848"/>
<path d="M64.1358 108.938C63.464 108.938 62.8052 108.753 62.2313 108.404C61.6574 108.055 61.1905 107.554 60.8815 106.958C60.5725 106.361 60.4334 105.691 60.4793 105.021C60.5251 104.351 60.7543 103.706 61.1417 103.157C64.1847 98.8434 67.521 95.4338 71.0529 93.0263C74.0104 91.0098 77.1023 89.6899 80.2675 89.0911C85.7791 88.0401 89.6043 89.5555 90.0198 89.7388C95.1526 91.9508 92.0729 98.8312 87.1723 96.4848L87.2212 96.5092C86.8179 96.3504 77.3467 92.904 67.13 107.386C66.793 107.867 66.3447 108.259 65.8234 108.529C65.302 108.8 64.7231 108.94 64.1358 108.938Z" fill="#484848"/>
</g>
<defs>
<linearGradient id="paint0_linear_1_48" x1="0" y1="75" x2="150" y2="75" gradientUnits="userSpaceOnUse">
<stop stop-color="#FF870F"/>
<stop offset="1" stop-color="#FF6200"/>
</linearGradient>
<clipPath id="clip0_1_48">
<rect width="150" height="150" fill="white"/>
</clipPath>
</defs>
</svg>
