<svg width="200" height="200" viewBox="0 0 200 200" fill="none" xmlns="http://www.w3.org/2000/svg">
<g clip-path="url(#clip0_17_60)">
<path d="M100 175C141.421 175 175 141.421 175 100C175 58.5786 141.421 25 100 25C58.5786 25 25 58.5786 25 100C25 141.421 58.5786 175 100 175Z" fill="url(#paint0_linear_17_60)" fill-opacity="0.8"/>
<path d="M86.3865 91.2983C86.1054 97.702 82.598 102.749 78.5284 102.566C74.4588 102.383 71.4036 97.0666 71.6847 90.6628C71.9658 84.259 75.4732 89.1596 79.5428 89.3307C83.6123 89.5018 86.6676 84.8945 86.3865 91.2983Z" fill="#484848"/>
<path d="M81.8756 97.3483C82.996 97.3483 83.9043 96.44 83.9043 95.3196C83.9043 94.1992 82.996 93.2909 81.8756 93.2909C80.7552 93.2909 79.8469 94.1992 79.8469 95.3196C79.8469 96.44 80.7552 97.3483 81.8756 97.3483Z" fill="white"/>
<path d="M113.614 91.2983C113.895 97.702 117.402 102.749 121.472 102.566C125.541 102.383 128.597 97.0666 128.315 90.6628C128.034 84.259 124.527 89.1596 120.457 89.3307C116.388 89.5018 113.333 84.8945 113.614 91.2983Z" fill="#484848"/>
<path d="M118.123 97.3483C119.243 97.3483 120.151 96.44 120.151 95.3196C120.151 94.1992 119.243 93.2909 118.123 93.2909C117.002 93.2909 116.094 94.1992 116.094 95.3196C116.094 96.44 117.002 97.3483 118.123 97.3483Z" fill="white"/>
<path d="M137.921 91.9714H62.078C61.1056 91.9714 60.1731 91.5851 59.4855 90.8975C58.798 90.21 58.4117 89.2774 58.4117 88.3051C58.4117 87.3327 58.798 86.4002 59.4855 85.7126C60.1731 85.0251 61.1056 84.6388 62.078 84.6388H137.921C138.894 84.6388 139.826 85.0251 140.514 85.7126C141.201 86.4002 141.588 87.3327 141.588 88.3051C141.588 89.2774 141.201 90.21 140.514 90.8975C139.826 91.5851 138.894 91.9714 137.921 91.9714Z" fill="#484848"/>
<path d="M89.1358 133.938C88.4641 133.938 87.8052 133.753 87.2313 133.404C86.6574 133.055 86.1905 132.554 85.8815 131.958C85.5725 131.361 85.4334 130.691 85.4793 130.021C85.5252 129.351 85.7543 128.706 86.1417 128.157C89.1847 123.843 92.5211 120.434 96.0529 118.026C99.0104 116.01 102.102 114.69 105.268 114.091C110.779 113.04 114.604 114.555 115.02 114.739C120.153 116.951 117.073 123.831 112.172 121.485L112.221 121.509C111.818 121.35 102.347 117.904 92.13 132.386C91.793 132.867 91.3448 133.259 90.8234 133.529C90.302 133.8 89.7231 133.94 89.1358 133.938Z" fill="#484848"/>
</g>
<defs>
<linearGradient id="paint0_linear_17_60" x1="25" y1="100" x2="175" y2="100" gradientUnits="userSpaceOnUse">
<stop stop-color="#FF870F"/>
<stop offset="1" stop-color="#FF6200"/>
</linearGradient>
<clipPath id="clip0_17_60">
<rect width="150" height="150" fill="white" transform="translate(25 25)"/>
</clipPath>
</defs>
</svg>
