<svg width="150" height="150" viewBox="0 0 150 150" fill="none" xmlns="http://www.w3.org/2000/svg">
<g clip-path="url(#clip0_1_49)">
<path d="M75 150C116.421 150 150 116.421 150 75C150 33.5786 116.421 0 75 0C33.5786 0 0 33.5786 0 75C0 116.421 33.5786 150 75 150Z" fill="url(#paint0_linear_1_49)" fill-opacity="0.8"/>
<path d="M88.6503 106.493C88.1457 106.494 87.6464 106.39 87.1838 106.188C78.9836 102.595 71.0155 102.595 62.8152 106.188C61.9239 106.578 60.9139 106.599 60.0075 106.245C59.1011 105.891 58.3724 105.191 57.9819 104.3C57.5913 103.408 57.5708 102.398 57.9249 101.492C58.279 100.586 58.9787 99.857 59.87 99.4664C69.9034 95.0669 80.0957 95.0669 90.1291 99.4664C90.9024 99.8035 91.5357 100.397 91.9224 101.147C92.309 101.897 92.4253 102.757 92.2516 103.582C92.0779 104.408 91.6248 105.148 90.9688 105.678C90.3128 106.209 89.4939 106.497 88.6503 106.493Z" fill="#00305F"/>
<path d="M54.0446 66.9961C54.324 60.597 51.2597 55.2658 47.2004 55.0886C43.1411 54.9113 39.6239 59.9552 39.3445 66.3543C39.0651 72.7534 42.1294 78.0846 46.1887 78.2619C50.248 78.4391 53.7652 73.3952 54.0446 66.9961Z" fill="#00305F"/>
<path d="M50.7409 68.8528C51.8613 68.8528 52.7696 67.9446 52.7696 66.8242C52.7696 65.7037 51.8613 64.7955 50.7409 64.7955C49.6205 64.7955 48.7122 65.7037 48.7122 66.8242C48.7122 67.9446 49.6205 68.8528 50.7409 68.8528Z" fill="white"/>
<path d="M57.4262 65.59C56.9709 65.5919 56.5191 65.5091 56.0941 65.3456L32.2144 56.021C31.3085 55.6677 30.58 54.969 30.1892 54.0786C29.7985 53.1882 29.7774 52.179 30.1307 51.2731C30.484 50.3672 31.1827 49.6388 32.0731 49.248C32.9635 48.8572 33.9726 48.8362 34.8786 49.1895L58.7583 58.514C59.5507 58.8272 60.2093 59.4066 60.6209 60.1526C61.0325 60.8986 61.1714 61.7647 61.0138 62.602C60.8562 63.4393 60.4118 64.1956 59.7571 64.7409C59.1024 65.2862 58.2783 65.5864 57.4262 65.59Z" fill="#00305F"/>
<path d="M103.546 78.8617C107.609 78.6991 110.695 73.3749 110.439 66.9697C110.182 60.5645 106.681 55.5038 102.618 55.6663C98.5546 55.8288 95.4684 61.153 95.7246 67.5583C95.9808 73.9635 99.4824 79.0242 103.546 78.8617Z" fill="#00305F"/>
<path d="M99.259 68.8528C100.379 68.8528 101.288 67.9446 101.288 66.8242C101.288 65.7037 100.379 64.7955 99.259 64.7955C98.1386 64.7955 97.2303 65.7037 97.2303 66.8242C97.2303 67.9446 98.1386 68.8528 99.259 68.8528Z" fill="white"/>
<path d="M92.574 65.59C91.7219 65.5864 90.8977 65.2862 90.243 64.7409C89.5883 64.1956 89.144 63.4393 88.9864 62.602C88.8287 61.7647 88.9677 60.8986 89.3793 60.1526C89.7909 59.4066 90.4495 58.8272 91.2419 58.514L115.122 49.1895C115.57 49.0145 116.049 48.9297 116.53 48.9397C117.012 48.9497 117.486 49.0545 117.927 49.248C118.368 49.4415 118.766 49.7199 119.1 50.0674C119.433 50.4148 119.695 50.8246 119.869 51.2731C120.044 51.7217 120.129 52.2003 120.119 52.6817C120.109 53.163 120.004 53.6377 119.811 54.0786C119.617 54.5195 119.339 54.9179 118.992 55.2512C118.644 55.5845 118.234 55.846 117.786 56.021L93.906 65.3456C93.481 65.5091 93.0293 65.5919 92.574 65.59Z" fill="#00305F"/>
</g>
<defs>
<linearGradient id="paint0_linear_1_49" x1="0" y1="75" x2="150" y2="75" gradientUnits="userSpaceOnUse">
<stop stop-color="#C40202"/>
<stop offset="1" stop-color="#B6009D"/>
</linearGradient>
<clipPath id="clip0_1_49">
<rect width="150" height="150" fill="white"/>
</clipPath>
</defs>
</svg>
