<svg width="200" height="200" viewBox="0 0 200 200" fill="none" xmlns="http://www.w3.org/2000/svg">
<g clip-path="url(#clip0_17_71)">
<path d="M100 175C141.421 175 175 141.421 175 100C175 58.5786 141.421 25 100 25C58.5786 25 25 58.5786 25 100C25 141.421 58.5786 175 100 175Z" fill="url(#paint0_linear_17_71)" fill-opacity="0.8"/>
<path d="M113.65 131.493C113.146 131.494 112.646 131.39 112.184 131.188C103.984 127.595 96.0155 127.595 87.8152 131.188C86.9239 131.578 85.9139 131.599 85.0075 131.245C84.101 130.891 83.3724 130.191 82.9818 129.3C82.5913 128.408 82.5708 127.398 82.9249 126.492C83.279 125.586 83.9786 124.857 84.87 124.466C94.9034 120.067 105.096 120.067 115.129 124.466C115.902 124.804 116.536 125.397 116.922 126.147C117.309 126.897 117.425 127.757 117.252 128.582C117.078 129.408 116.625 130.148 115.969 130.678C115.313 131.209 114.494 131.497 113.65 131.493Z" fill="#00305F"/>
<path d="M79.0445 91.9961C79.3239 85.597 76.2597 80.2658 72.2004 80.0886C68.1411 79.9113 64.6239 84.9552 64.3445 91.3543C64.0651 97.7534 67.1293 103.085 71.1886 103.262C75.2479 103.439 78.7651 98.3952 79.0445 91.9961Z" fill="#00305F"/>
<path d="M75.7409 93.8528C76.8613 93.8528 77.7696 92.9446 77.7696 91.8242C77.7696 90.7037 76.8613 89.7955 75.7409 89.7955C74.6205 89.7955 73.7122 90.7037 73.7122 91.8242C73.7122 92.9446 74.6205 93.8528 75.7409 93.8528Z" fill="white"/>
<path d="M82.4262 90.59C81.9709 90.5919 81.5192 90.509 81.0942 90.3456L57.2144 81.021C56.3085 80.6677 55.58 79.969 55.1893 79.0786C54.7985 78.1882 54.7775 77.179 55.1307 76.2731C55.484 75.3672 56.1827 74.6387 57.0731 74.248C57.9635 73.8572 58.9727 73.8362 59.8786 74.1895L83.7583 83.514C84.5507 83.8272 85.2093 84.4066 85.6209 85.1526C86.0325 85.8986 86.1715 86.7647 86.0138 87.602C85.8562 88.4393 85.4119 89.1956 84.7572 89.7409C84.1024 90.2862 83.2783 90.5864 82.4262 90.59Z" fill="#00305F"/>
<path d="M128.546 103.862C132.609 103.699 135.695 98.3749 135.439 91.9697C135.182 85.5645 131.681 80.5038 127.618 80.6663C123.555 80.8288 120.468 86.153 120.725 92.5583C120.981 98.9635 124.482 104.024 128.546 103.862Z" fill="#00305F"/>
<path d="M124.259 93.8528C125.379 93.8528 126.288 92.9446 126.288 91.8242C126.288 90.7037 125.379 89.7955 124.259 89.7955C123.139 89.7955 122.23 90.7037 122.23 91.8242C122.23 92.9446 123.139 93.8528 124.259 93.8528Z" fill="white"/>
<path d="M117.574 90.59C116.722 90.5864 115.898 90.2862 115.243 89.7409C114.588 89.1956 114.144 88.4393 113.986 87.602C113.829 86.7647 113.968 85.8986 114.379 85.1526C114.791 84.4066 115.449 83.8272 116.242 83.514L140.122 74.1895C140.57 74.0145 141.049 73.9297 141.53 73.9397C142.012 73.9497 142.486 74.0545 142.927 74.248C143.368 74.4415 143.766 74.7199 144.1 75.0674C144.433 75.4148 144.695 75.8246 144.869 76.2731C145.044 76.7217 145.129 77.2003 145.119 77.6817C145.109 78.163 145.004 78.6377 144.811 79.0786C144.617 79.5195 144.339 79.9179 143.992 80.2512C143.644 80.5845 143.234 80.846 142.786 81.021L118.906 90.3456C118.481 90.509 118.029 90.5919 117.574 90.59Z" fill="#00305F"/>
</g>
<defs>
<linearGradient id="paint0_linear_17_71" x1="25" y1="100" x2="175" y2="100" gradientUnits="userSpaceOnUse">
<stop stop-color="#C40202"/>
<stop offset="1" stop-color="#B6009D"/>
</linearGradient>
<clipPath id="clip0_17_71">
<rect width="150" height="150" fill="white" transform="translate(25 25)"/>
</clipPath>
</defs>
</svg>
