<svg width="412" height="412" viewBox="0 0 412 412" fill="none" xmlns="http://www.w3.org/2000/svg">
<mask id="mask0_459_4021" style="mask-type:luminance" maskUnits="userSpaceOnUse" x="14" y="14" width="384" height="384">
<path d="M14 14H398V206H278C258.904 206 240.591 213.586 227.088 227.088C213.586 240.591 206 258.904 206 278V398H14V14Z" fill="white"/>
</mask>
<g mask="url(#mask0_459_4021)">
<mask id="mask1_459_4021" style="mask-type:luminance" maskUnits="userSpaceOnUse" x="14" y="14" width="384" height="384">
<path d="M398 14H14V398H398V14Z" fill="white"/>
</mask>
<g mask="url(#mask1_459_4021)">
<path d="M206 290C252.392 290 290 252.392 290 206C290 159.608 252.392 122 206 122C159.608 122 122 159.608 122 206C122 252.392 159.608 290 206 290Z" fill="url(#paint0_linear_459_4021)" stroke="#F8AF18" stroke-width="6" stroke-miterlimit="10"/>
<path d="M206 75.7V26M206 386V336.3M298.2 113.8L333.2 78.8M78.8 333.2L113.9 298.1M113.9 113.7L78.9 78.7M333.4 333.2L298.3 298.1M75.7 206H26M386 206H336.3" stroke="#FBBF24" stroke-width="24" stroke-miterlimit="10" stroke-linecap="round"/>
</g>
<path d="M204 288V278C204 258.374 211.796 239.552 225.674 225.674C239.552 211.796 258.374 204 278 204H288" stroke="#F8AF18" stroke-width="6" stroke-miterlimit="10"/>
</g>
<path d="M329 230H281C254.49 230 233 251.49 233 278V326C233 352.51 254.49 374 281 374H329C355.51 374 377 352.51 377 326V278C377 251.49 355.51 230 329 230Z" fill="#1C37FF"/>
<path d="M319.4 338H300.4V293H282.6V280.4H285.6C290.8 280.4 294.933 279.267 298 277C300.8 274.933 302.633 271.533 303.5 266.8L303.7 266H319.3L319.4 338Z" fill="white"/>
<defs>
<linearGradient id="paint0_linear_459_4021" x1="164" y1="133.2" x2="248" y2="278.8" gradientUnits="userSpaceOnUse">
<stop stop-color="#FBBF24"/>
<stop offset="0.5" stop-color="#FBBF24"/>
<stop offset="1" stop-color="#F59E0B"/>
</linearGradient>
</defs>
</svg>
