<svg width="412" height="412" viewBox="0 0 412 412" fill="none" xmlns="http://www.w3.org/2000/svg">
<mask id="mask0_459_4036" style="mask-type:luminance" maskUnits="userSpaceOnUse" x="14" y="14" width="384" height="384">
<path d="M14 14H398V206H278C258.904 206 240.591 213.586 227.088 227.088C213.586 240.591 206 258.904 206 278V398H14V14Z" fill="white"/>
</mask>
<g mask="url(#mask0_459_4036)">
<mask id="mask1_459_4036" style="mask-type:luminance" maskUnits="userSpaceOnUse" x="14" y="14" width="384" height="384">
<path d="M398 14H14V398H398V14Z" fill="white"/>
</mask>
<g mask="url(#mask1_459_4036)">
<path d="M206 290C252.392 290 290 252.392 290 206C290 159.608 252.392 122 206 122C159.608 122 122 159.608 122 206C122 252.392 159.608 290 206 290Z" fill="url(#paint0_linear_459_4036)" stroke="#F8AF18" stroke-width="6" stroke-miterlimit="10"/>
<path d="M206 75.7V26M206 386V336.3M298.2 113.8L333.2 78.8M78.8 333.2L113.9 298.1M113.9 113.7L78.9 78.7M333.4 333.2L298.3 298.1M75.7 206H26M386 206H336.3" stroke="#FBBF24" stroke-width="24" stroke-miterlimit="10" stroke-linecap="round"/>
</g>
<path d="M204 288V278C204 258.374 211.796 239.552 225.674 225.674C239.552 211.796 258.374 204 278 204H288" stroke="#F8AF18" stroke-width="6" stroke-miterlimit="10"/>
</g>
<path d="M328 233H280C253.49 233 232 254.49 232 281V329C232 355.51 253.49 377 280 377H328C354.51 377 376 355.51 376 329V281C376 254.49 354.51 233 328 233Z" fill="#008731"/>
<path d="M331.899 341H276.199C276.199 334.733 277.532 329.5 280.199 325.3C282.866 321.233 287.799 316.733 294.999 311.8L305.999 304C308.282 302.539 310.281 300.675 311.899 298.5C313.039 296.783 313.631 294.761 313.599 292.7C313.668 291.462 313.472 290.224 313.023 289.069C312.575 287.913 311.885 286.867 310.999 286C309.069 284.316 306.556 283.454 303.999 283.6C297.332 283.6 293.999 287.533 293.999 295.4V296.9H276.999V294.7C276.999 286.633 279.399 280.3 284.199 275.7C288.999 271.1 295.666 268.833 304.199 268.9C312.532 268.9 319.132 270.9 323.999 274.9C328.866 278.9 331.332 284.467 331.399 291.6C331.456 295.922 330.239 300.165 327.899 303.8C325.566 307.467 321.832 310.933 316.699 314.2L304.599 321.9C302.299 323.4 300.999 324.7 300.799 325.8H331.799L331.899 341Z" fill="white"/>
<defs>
<linearGradient id="paint0_linear_459_4036" x1="164" y1="133.2" x2="248" y2="278.8" gradientUnits="userSpaceOnUse">
<stop stop-color="#FBBF24"/>
<stop offset="0.5" stop-color="#FBBF24"/>
<stop offset="1" stop-color="#F59E0B"/>
</linearGradient>
</defs>
</svg>
