<svg width="412" height="412" viewBox="0 0 412 412" fill="none" xmlns="http://www.w3.org/2000/svg">
<mask id="mask0_459_4078" style="mask-type:luminance" maskUnits="userSpaceOnUse" x="14" y="14" width="384" height="384">
<path d="M14 14H398V206H278C258.904 206 240.591 213.586 227.088 227.088C213.586 240.591 206 258.904 206 278V398H14V14Z" fill="white"/>
</mask>
<g mask="url(#mask0_459_4078)">
<mask id="mask1_459_4078" style="mask-type:luminance" maskUnits="userSpaceOnUse" x="14" y="14" width="384" height="384">
<path d="M398 14H14V398H398V14Z" fill="white"/>
</mask>
<g mask="url(#mask1_459_4078)">
<path d="M206 290C252.392 290 290 252.392 290 206C290 159.608 252.392 122 206 122C159.608 122 122 159.608 122 206C122 252.392 159.608 290 206 290Z" fill="url(#paint0_linear_459_4078)" stroke="#F8AF18" stroke-width="6" stroke-miterlimit="10"/>
<path d="M206 75.7V26M206 386V336.3M298.2 113.8L333.2 78.8M78.8 333.2L113.9 298.1M113.9 113.7L78.9 78.7M333.4 333.2L298.3 298.1M75.7 206H26M386 206H336.3" stroke="#FBBF24" stroke-width="24" stroke-miterlimit="10" stroke-linecap="round"/>
</g>
<path d="M204 288V278C204 258.374 211.796 239.552 225.674 225.674C239.552 211.796 258.374 204 278 204H288" stroke="#F8AF18" stroke-width="6" stroke-miterlimit="10"/>
</g>
<path d="M329 230H281C254.49 230 233 251.49 233 278V326C233 352.51 254.49 374 281 374H329C355.51 374 377 352.51 377 326V278C377 251.49 355.51 230 329 230Z" fill="#D32525"/>
<path d="M304.8 338C296.8 338 290.233 336.167 285.1 332.5C279.967 328.833 276.967 323.6 276.1 316.8L293.7 315.4C294.181 317.801 295.535 319.939 297.5 321.4C299.602 322.887 302.126 323.658 304.7 323.6C306.245 323.692 307.793 323.475 309.253 322.959C310.713 322.444 312.055 321.642 313.2 320.6C314.233 319.551 315.034 318.297 315.55 316.919C316.067 315.541 316.289 314.069 316.2 312.6C316.267 311.163 316.034 309.728 315.518 308.385C315.002 307.043 314.212 305.822 313.2 304.8C312.055 303.758 310.713 302.956 309.253 302.441C307.793 301.925 306.245 301.708 304.7 301.8C302.868 301.768 301.051 302.137 299.375 302.879C297.7 303.622 296.207 304.721 295 306.1L278.4 304.6L284.8 266H329V280.7H298.1L295.8 292.7L296.1 292.9C299.833 290.233 304.567 288.9 310.3 288.9C317.433 288.9 323.1 290.967 327.3 295.1C331.5 299.233 333.7 304.933 333.9 312.2C333.9 320.067 331.3 326.333 326.1 331C320.9 335.667 313.8 338 304.8 338Z" fill="white"/>
<defs>
<linearGradient id="paint0_linear_459_4078" x1="164" y1="133.2" x2="248" y2="278.8" gradientUnits="userSpaceOnUse">
<stop stop-color="#FBBF24"/>
<stop offset="0.5" stop-color="#FBBF24"/>
<stop offset="1" stop-color="#F59E0B"/>
</linearGradient>
</defs>
</svg>
