<svg width="800" height="800" viewBox="0 0 800 800" fill="none" xmlns="http://www.w3.org/2000/svg">
<path d="M355.556 44.4444C355.556 44.4444 355.556 0 400 0C444.444 0 444.444 44.4444 444.444 44.4444V88.8889C444.444 88.8889 444.444 133.333 400 133.333C355.556 133.333 355.556 88.8889 355.556 88.8889V44.4444ZM755.556 355.556C755.556 355.556 800 355.556 800 400C800 444.444 755.556 444.444 755.556 444.444H711.111C711.111 444.444 666.667 444.444 666.667 400C666.667 355.556 711.111 355.556 711.111 355.556H755.556ZM88.8889 355.556C88.8889 355.556 133.333 355.556 133.333 400C133.333 444.444 88.8889 444.444 88.8889 444.444H44.4444C44.4444 444.444 0 444.444 0 400C0 355.556 44.4444 355.556 44.4444 355.556H88.8889ZM202.689 162.067C202.689 162.067 234.111 193.489 202.689 224.911C171.267 256.333 139.844 224.911 139.844 224.911L108.4 193.511C108.4 193.511 76.9778 162.089 108.4 130.644C139.844 99.2222 171.267 130.644 171.267 130.644L202.689 162.067ZM669.356 628.733C669.356 628.733 700.778 660.156 669.356 691.578C637.933 723 606.511 691.578 606.511 691.578L575.089 660.156C575.089 660.156 543.667 628.733 575.089 597.311C606.511 565.889 637.933 597.311 637.933 597.311L669.356 628.733ZM660.178 224.911C660.178 224.911 628.756 256.333 597.333 224.911C565.911 193.489 597.333 162.067 597.333 162.067L628.756 130.644C628.756 130.644 660.178 99.2222 691.6 130.644C723.022 162.067 691.6 193.489 691.6 193.489L660.178 224.911ZM193.511 691.578C193.511 691.578 162.089 723 130.667 691.578C99.2444 660.156 130.667 628.733 130.667 628.733L162.089 597.311C162.089 597.311 193.511 565.889 224.933 597.311C256.356 628.733 224.933 660.156 224.933 660.156L193.511 691.578ZM355.556 711.111C355.556 711.111 355.556 666.667 400 666.667C444.444 666.667 444.444 711.111 444.444 711.111V755.556C444.444 755.556 444.444 800 400 800C355.556 800 355.556 755.556 355.556 755.556V711.111Z" fill="url(#paint0_linear_6_5)"/>
<path d="M400 622.222C522.73 622.222 622.222 522.73 622.222 400C622.222 277.27 522.73 177.778 400 177.778C277.27 177.778 177.778 277.27 177.778 400C177.778 522.73 277.27 622.222 400 622.222Z" fill="url(#paint1_linear_6_5)"/>
<defs>
<linearGradient id="paint0_linear_6_5" x1="400" y1="177.778" x2="400" y2="622.222" gradientUnits="userSpaceOnUse">
<stop stop-color="#1C37FF"/>
<stop offset="1" stop-color="#0077FF"/>
</linearGradient>
<linearGradient id="paint1_linear_6_5" x1="400" y1="177.778" x2="400" y2="622.222" gradientUnits="userSpaceOnUse">
<stop stop-color="#1C37FF"/>
<stop offset="1" stop-color="#0077FF"/>
</linearGradient>
</defs>
</svg>
