<svg width="412" height="412" viewBox="0 0 412 412" fill="none" xmlns="http://www.w3.org/2000/svg">
<mask id="mask0_459_4092" style="mask-type:luminance" maskUnits="userSpaceOnUse" x="14" y="14" width="384" height="384">
<path d="M14 14H398V206H278C258.904 206 240.591 213.586 227.088 227.088C213.586 240.591 206 258.904 206 278V398H14V14Z" fill="white"/>
</mask>
<g mask="url(#mask0_459_4092)">
<mask id="mask1_459_4092" style="mask-type:luminance" maskUnits="userSpaceOnUse" x="14" y="14" width="384" height="384">
<path d="M398 14H14V398H398V14Z" fill="white"/>
</mask>
<g mask="url(#mask1_459_4092)">
<path d="M206 290C252.392 290 290 252.392 290 206C290 159.608 252.392 122 206 122C159.608 122 122 159.608 122 206C122 252.392 159.608 290 206 290Z" fill="url(#paint0_linear_459_4092)" stroke="#F8AF18" stroke-width="6" stroke-miterlimit="10"/>
<path d="M206 75.7V26M206 386V336.3M298.2 113.8L333.2 78.8M78.8 333.2L113.9 298.1M113.9 113.7L78.9 78.7M333.4 333.2L298.3 298.1M75.7 206H26M386 206H336.3" stroke="#FBBF24" stroke-width="24" stroke-miterlimit="10" stroke-linecap="round"/>
</g>
<path d="M204 288V278C204 258.374 211.796 239.552 225.674 225.674C239.552 211.796 258.374 204 278 204H288" stroke="#F8AF18" stroke-width="6" stroke-miterlimit="10"/>
</g>
<path d="M324 228H276C249.49 228 228 249.49 228 276V324C228 350.51 249.49 372 276 372H324C350.51 372 372 350.51 372 324V276C372 249.49 350.51 228 324 228Z" fill="#930EF3"/>
<path d="M304.5 286.8C311.833 286.8 317.733 288.967 322.2 293.3C326.667 297.633 328.933 303.4 329 310.6C329 318.133 326.433 324.267 321.3 329C316.167 333.733 309.433 336.067 301.1 336C292.7 336 285.833 333.433 280.5 328.3C274.167 322.3 271 313.067 271 300.6C271 288.933 273.533 279.933 278.6 273.6C283.667 267.267 291.067 264.067 300.8 264C307.533 264 313.133 265.533 317.6 268.6C322.087 271.689 325.288 276.313 326.6 281.6L310 282.6C308.6 278.867 305.5 277 300.7 277C296.7 277 293.7 278.333 291.7 281C289.7 283.667 288.467 288 288 294C291.867 289.2 297.367 286.8 304.5 286.8ZM291.8 318.4C292.916 319.611 294.28 320.568 295.798 321.206C297.316 321.845 298.954 322.149 300.6 322.1C304.2 322.1 306.967 321.033 308.9 318.9C310.82 316.682 311.852 313.833 311.8 310.9C311.856 309.417 311.601 307.938 311.05 306.56C310.498 305.182 309.664 303.935 308.6 302.9C307.512 301.858 306.225 301.047 304.816 300.514C303.407 299.982 301.905 299.739 300.4 299.8C298.934 299.741 297.471 299.976 296.097 300.492C294.723 301.007 293.466 301.792 292.4 302.8C290.26 304.998 289.044 307.933 289 311C289.093 313.708 290.077 316.309 291.8 318.4Z" fill="white"/>
<defs>
<linearGradient id="paint0_linear_459_4092" x1="164" y1="133.2" x2="248" y2="278.8" gradientUnits="userSpaceOnUse">
<stop stop-color="#FBBF24"/>
<stop offset="0.5" stop-color="#FBBF24"/>
<stop offset="1" stop-color="#F59E0B"/>
</linearGradient>
</defs>
</svg>
