<svg width="28" height="28" viewBox="0 0 28 28" fill="none" xmlns="http://www.w3.org/2000/svg">
<g filter="url(#filter0_d_408_3113)">
<path d="M14.3667 25.9363L14.3516 25.9386L14.2626 25.9797L14.2375 25.9844L14.2199 25.9797L14.1308 25.9375C14.1174 25.9343 14.1074 25.9367 14.1007 25.9445L14.0957 25.9562L14.0744 26.459L14.0806 26.4825L14.0932 26.4978L14.2237 26.5847L14.2425 26.5894L14.2575 26.5847L14.388 26.4978L14.4031 26.479L14.4081 26.459L14.3868 25.9574C14.3834 25.9449 14.3767 25.9378 14.3667 25.9363ZM14.6979 25.8035L14.6804 25.8059L14.4495 25.9151L14.437 25.9269L14.4332 25.9398L14.4558 26.4449L14.462 26.459L14.4721 26.4684L14.7243 26.5765C14.7402 26.5804 14.7523 26.5773 14.7606 26.5671L14.7657 26.5506L14.723 25.8294C14.7188 25.8145 14.7105 25.8059 14.6979 25.8035ZM13.8009 25.8059C13.7953 25.8028 13.7887 25.8017 13.7824 25.8031C13.7761 25.8044 13.7706 25.8079 13.767 25.8129L13.7595 25.8294L13.7168 26.5506C13.7176 26.5647 13.7247 26.5741 13.7381 26.5788L13.7569 26.5765L14.0091 26.4672L14.0217 26.4578L14.0254 26.4449L14.048 25.9398L14.0443 25.9257L14.0317 25.914L13.8009 25.8059Z" fill="url(#paint0_linear_408_3113)" fill-opacity="0.9"/>
<path d="M9.99129 5.01513C10.7416 2.95944 13.7752 2.89719 14.6648 4.82836L14.7401 5.0163L15.7525 7.78854C15.9846 8.42431 16.3595 9.0061 16.8521 9.49467C17.3447 9.98323 17.9435 10.3672 18.6081 10.6207L18.8803 10.7158L21.8413 11.6626C24.0369 12.3651 24.1034 15.2054 22.042 16.0383L21.8413 16.1088L18.8803 17.0567C18.2011 17.2738 17.5794 17.6248 17.0574 18.0861C16.5353 18.5473 16.125 19.108 15.8542 19.7303L15.7525 19.984L14.7413 22.7574C13.991 24.8131 10.9574 24.8754 10.0691 22.9454L9.99129 22.7574L8.98006 19.9852C8.74818 19.3492 8.37328 18.7672 7.88068 18.2784C7.38807 17.7896 6.78922 17.4055 6.12452 17.1519L5.85352 17.0567L2.8926 16.1099C0.695746 15.4075 0.629251 12.5671 2.69186 11.7355L2.8926 11.6626L5.85352 10.7158C6.53257 10.4986 7.15396 10.1475 7.67578 9.68631C8.19759 9.22511 8.6077 8.66449 8.87843 8.04227L8.98006 7.78854L9.99129 5.01513ZM22.4033 0.964844C22.638 0.964843 22.8681 1.02649 23.0672 1.14277C23.2664 1.25906 23.4267 1.42532 23.53 1.62266L23.5902 1.7601L24.0293 2.96532L25.3178 3.37646C25.5531 3.45128 25.7593 3.58979 25.9103 3.77445C26.0614 3.95911 26.1505 4.1816 26.1663 4.41372C26.1822 4.64584 26.1241 4.87714 25.9994 5.07831C25.8747 5.27948 25.689 5.44147 25.4659 5.54373L25.3178 5.60012L24.0306 6.01125L23.5915 7.21765C23.5114 7.43782 23.3633 7.63078 23.166 7.77209C22.9687 7.91339 22.7311 7.99668 22.4832 8.0114C22.2353 8.02612 21.9883 7.97161 21.7735 7.85477C21.5587 7.73793 21.3858 7.56402 21.2767 7.35508L21.2165 7.21765L20.7773 6.01243L19.4888 5.60129C19.2536 5.52647 19.0474 5.38795 18.8964 5.20329C18.7453 5.01864 18.6562 4.79615 18.6404 4.56403C18.6245 4.33191 18.6826 4.10061 18.8073 3.89944C18.932 3.69827 19.1177 3.53628 19.3408 3.43401L19.4888 3.37763L20.7761 2.96649L21.2152 1.7601C21.2998 1.52801 21.4599 1.32654 21.6729 1.18392C21.886 1.0413 22.1414 0.964697 22.4033 0.964844Z" fill="url(#paint1_linear_408_3113)" fill-opacity="0.9"/>
</g>
<defs>
<filter id="filter0_d_408_3113" x="-0.243554" y="-0.47207" width="27.8494" height="28.4983" filterUnits="userSpaceOnUse" color-interpolation-filters="sRGB">
<feFlood flood-opacity="0" result="BackgroundImageFix"/>
<feColorMatrix in="SourceAlpha" type="matrix" values="0 0 0 0 0 0 0 0 0 0 0 0 0 0 0 0 0 0 127 0" result="hardAlpha"/>
<feOffset dx="0.287383" dy="0.287383"/>
<feGaussianBlur stdDeviation="0.287383"/>
<feComposite in2="hardAlpha" operator="out"/>
<feColorMatrix type="matrix" values="0 0 0 0 0 0 0 0 0 0 0 0 0 0 0 0 0 0 0.25 0"/>
<feBlend mode="normal" in2="BackgroundImageFix" result="effect1_dropShadow_408_3113"/>
<feBlend mode="normal" in="SourceGraphic" in2="effect1_dropShadow_408_3113" result="shape"/>
</filter>
<linearGradient id="paint0_linear_408_3113" x1="14.2412" y1="25.8025" x2="14.2412" y2="26.5894" gradientUnits="userSpaceOnUse">
<stop stop-color="#C7CAFF"/>
<stop offset="1" stop-color="#FFDBFD" stop-opacity="0.9"/>
</linearGradient>
<linearGradient id="paint1_linear_408_3113" x1="13.6811" y1="0.964844" x2="13.6811" y2="24.3475" gradientUnits="userSpaceOnUse">
<stop stop-color="#C7CAFF"/>
<stop offset="1" stop-color="#FFDBFD" stop-opacity="0.9"/>
</linearGradient>
</defs>
</svg>
