<svg width="59" height="59" viewBox="0 0 59 59" fill="none" xmlns="http://www.w3.org/2000/svg">
<path d="M14.7493 46.7084H7.37435C5.89935 46.7084 4.91602 45.7251 4.91602 44.2501V14.7501C4.91602 12.0459 6.88268 9.09592 9.58685 8.35842L19.666 4.91675C19.666 7.52471 20.702 10.0259 22.5461 11.87C24.3902 13.7141 26.8914 14.7501 29.4994 14.7501C32.1073 14.7501 34.6085 13.7141 36.4526 11.87C38.2967 10.0259 39.3327 7.52471 39.3327 4.91675L49.4119 8.35842C52.116 9.09592 54.0827 12.0459 54.0827 14.7501V44.2501C54.0827 45.7251 53.0993 46.7084 51.6243 46.7084H44.2493" fill="white"/>
<path d="M14.7493 46.7084H7.37435C5.89935 46.7084 4.91602 45.7251 4.91602 44.2501V14.7501C4.91602 12.0459 6.88268 9.09592 9.58685 8.35842L19.666 4.91675C19.666 7.52471 20.702 10.0259 22.5461 11.87C24.3902 13.7141 26.8914 14.7501 29.4994 14.7501C32.1073 14.7501 34.6085 13.7141 36.4526 11.87C38.2967 10.0259 39.3327 7.52471 39.3327 4.91675L49.4119 8.35842C52.116 9.09592 54.0827 12.0459 54.0827 14.7501V44.2501C54.0827 45.7251 53.0993 46.7084 51.6243 46.7084H44.2493" stroke="black" stroke-width="2" stroke-linecap="round" stroke-linejoin="round"/>
<path d="M44.25 19.6667V51.6251C44.25 53.1001 43.2667 54.0834 41.7917 54.0834H17.2083C15.7333 54.0834 14.75 53.1001 14.75 51.6251V19.6667" fill="white"/>
<path d="M44.25 19.6667V51.6251C44.25 53.1001 43.2667 54.0834 41.7917 54.0834H17.2083C15.7333 54.0834 14.75 53.1001 14.75 51.6251V19.6667" stroke="black" stroke-width="2" stroke-linecap="round" stroke-linejoin="round"/>
</svg>
