<svg width="155" height="155" viewBox="0 0 155 155" fill="none" xmlns="http://www.w3.org/2000/svg">
<g clip-path="url(#clip0_65_3356)">
<path d="M112.987 146.425L133.948 136.93C135.779 136.012 136.896 134.101 136.799 132.056L136.286 119.459H112.557L112.987 146.425Z" fill="#00AAF0"/>
<path d="M42.0125 146.425L21.0515 136.93C19.2211 136.012 18.1037 134.101 18.2012 132.056L18.7134 119.459H42.4433L42.0125 146.425Z" fill="#00AAF0"/>
<path d="M42.0952 141.282C37.2345 139.337 33.8835 134.507 33.8835 128.894C33.8835 126.043 34.3897 122.154 34.8008 119.459H26.947C26.5392 122.307 26.1172 125.959 26.1172 128.894C26.1172 133.356 27.4937 137.492 29.8239 140.903L42.0129 146.425L42.0952 141.282Z" fill="#0096DC"/>
<path d="M41.2578 139.63V149.985C41.2578 151.414 42.417 152.573 43.8465 152.573H111.153C112.583 152.573 113.742 151.414 113.742 149.985V139.63H41.2578Z" fill="#0096DC"/>
<path d="M138.27 64.557C140.761 51.2891 139.629 35.9186 135.009 30.5527C129.428 24.072 111.153 17.9592 111.153 17.9592H43.8459C43.8459 17.9592 25.5707 24.072 19.9901 30.5527C15.3698 35.9186 14.2372 51.2894 16.7284 64.557C16.7284 64.557 12.7811 80.0888 15.7621 93.0337C15.7621 93.0337 14.7716 107.682 15.0997 112.553C15.4775 118.165 18.0922 122.878 23.0704 124.946L33.928 129.363C34.1687 136.443 39.6836 142.218 46.8208 142.218H108.178C115.315 142.218 120.83 136.444 121.07 129.363L131.928 124.946C136.906 122.878 139.521 118.164 139.899 112.553C140.227 107.682 139.236 93.0337 139.236 93.0337C142.217 80.0888 138.27 64.557 138.27 64.557Z" fill="#00AAF0"/>
<path d="M43.8457 17.9594C43.8457 17.9594 61.9668 33.4918 77.4992 36.0805C93.0316 33.4918 111.153 17.9594 111.153 17.9594L104.817 5.28905C103.94 3.53501 102.148 2.427 100.186 2.427H54.8113C52.8505 2.427 51.0574 3.53501 50.1804 5.28905L43.8457 17.9594Z" fill="#0096DC"/>
<path d="M15.7621 93.0335C15.7621 93.0335 14.7716 107.682 15.0997 112.553C15.4775 118.164 18.0922 122.877 23.0704 124.945L33.928 129.363C33.9225 129.204 33.8826 129.054 33.8826 128.894C33.8826 124.097 35.3181 116.33 35.3181 116.33C30.9021 103.387 36.0795 90.4445 36.0795 90.4445C36.0795 90.4445 30.9021 77.4999 36.0795 64.5568V54.2015C36.0795 54.2015 33.7591 40.3635 20.4327 30.1023C20.2892 30.2528 20.12 30.402 19.9901 30.5531C15.3698 35.9184 14.2372 51.2892 16.7284 64.5568C16.7284 64.5568 12.7811 80.0886 15.7621 93.0335Z" fill="#0096DC"/>
<path d="M139.235 93.0335C139.235 93.0335 140.226 107.682 139.898 112.553C139.52 118.164 136.905 122.877 131.927 124.945L121.07 129.363C121.075 129.204 121.115 129.054 121.115 128.894C121.115 124.097 119.679 116.33 119.679 116.33C124.095 103.387 118.918 90.4442 118.918 90.4442C118.918 90.4442 124.095 77.4996 118.918 64.5565V54.2015C118.918 54.2015 121.238 40.3635 134.565 30.1023C134.708 30.2528 134.878 30.402 135.007 30.5531C139.628 35.9184 140.76 51.2892 138.269 64.5571C138.269 64.5568 142.217 80.0886 139.235 93.0335Z" fill="#0096DC"/>
<path d="M77.4987 25.7254C77.4987 25.7254 91.4778 17.3188 103.002 3.27769C102.177 2.74063 101.209 2.427 100.187 2.427H54.8115C53.7889 2.427 52.821 2.74063 51.9961 3.27769C63.5197 17.3188 77.4987 25.7254 77.4987 25.7254Z" fill="#007DC8"/>
<path d="M33.9282 129.363C33.9227 129.204 33.8828 129.054 33.8828 128.894C33.8828 127.994 33.9333 126.99 34.0151 125.953C34.3708 121.457 35.3177 116.33 35.3177 116.33C34.4898 113.903 33.999 111.476 33.7484 109.135C32.6615 98.9883 36.0791 90.4442 36.0791 90.4442C36.0791 90.4442 30.9017 77.4996 36.0791 64.5565C36.0791 64.5565 36.0791 59.8566 36.0791 56.7896H33.4904C30.6311 56.7896 28.3131 59.1073 28.3131 61.9669V63.1491C24.3288 74.4514 26.4703 85.3665 27.911 90.4215C26.4712 95.3292 24.2467 105.848 27.3473 116.844C26.981 119.074 26.434 122.806 26.2154 126.224L33.9282 129.363Z" fill="#007DC8"/>
<path d="M112.904 141.282C117.765 139.337 121.116 134.507 121.116 128.894C121.116 126.043 120.61 122.154 120.199 119.459H128.053C128.46 122.307 128.882 125.959 128.882 128.894C128.882 133.356 127.506 137.492 125.176 140.903L112.987 146.425L112.904 141.282Z" fill="#0096DC"/>
<path d="M121.071 129.363C121.076 129.204 121.116 129.054 121.116 128.894C121.116 127.994 121.066 126.99 120.984 125.953C120.628 121.457 119.681 116.33 119.681 116.33C120.509 113.903 121 111.476 121.251 109.135C122.337 98.9883 118.92 90.4442 118.92 90.4442C118.92 90.4442 124.097 77.4996 118.92 64.5565C118.92 64.5565 118.92 59.8566 118.92 56.7896H121.509C124.368 56.7896 126.686 59.1073 126.686 61.9669V63.1491C130.67 74.4514 128.529 85.3665 127.088 90.4215C128.528 95.3292 130.752 105.848 127.652 116.844C128.018 119.074 128.565 122.806 128.784 126.224L121.071 129.363Z" fill="#007DC8"/>
<path d="M140.751 64.4885C143.003 51.9644 142.41 35.4284 136.848 28.9696C131.603 22.8782 116.831 17.3809 112.881 15.9886L106.989 4.20377C105.693 1.61085 103.086 0 100.187 0H54.8126C51.9139 0 49.3074 1.61085 48.0111 4.20347L42.1183 15.9886C38.1686 17.3806 23.3963 22.8782 18.1515 28.9696C12.5896 35.4284 11.9966 51.9644 14.2489 64.4885C13.5723 67.3808 10.6551 81.1476 13.318 93.224C13.1648 95.5508 12.3689 108.11 12.6789 112.716C12.9372 116.55 14.1215 119.881 16.075 122.481L15.7765 131.963C15.6424 134.956 17.2841 137.755 19.9633 139.1C19.9936 139.115 20.0248 139.13 20.056 139.144L38.8303 147.59V149.985C38.8303 152.75 41.0803 155 43.846 155H111.153C113.919 155 116.169 152.75 116.169 149.985V147.59L134.943 139.144C134.975 139.129 135.005 139.115 135.036 139.099C137.722 137.752 139.365 134.942 139.222 131.932L138.749 122.707C140.807 120.076 142.055 116.663 142.32 112.717C142.63 108.11 141.834 95.5511 141.681 93.2243C144.345 81.1477 141.428 67.3808 140.751 64.4885ZM137.478 112.39C137.281 115.318 136.176 120.553 130.998 122.704L123.41 125.856C123.123 122.133 122.446 118.045 122.178 116.509C123.783 111.497 124.079 106.547 123.81 102.281L137.037 96.7863C137.304 101.399 137.693 109.193 137.478 112.39ZM118.69 128.894C118.69 135.005 114.073 139.791 108.179 139.791H79.9268V118.758H117.632C118.045 121.318 118.69 125.805 118.69 128.894ZM36.3104 128.894C36.3104 125.809 36.9546 121.319 37.3675 118.758H75.0731V139.791H46.8216C40.9274 139.791 36.3104 135.005 36.3104 128.894ZM24.0024 122.704C18.8235 120.553 17.7192 115.319 17.5221 112.39C17.3068 109.194 17.6955 101.399 17.9629 96.7863L31.1902 102.281C30.9211 106.547 31.2172 111.497 32.8217 116.509C32.5531 118.045 31.8771 122.134 31.5895 125.856L24.0024 122.704ZM31.4675 73.9205C30.8524 81.6644 32.7096 88.1193 33.4986 90.441C33.0723 91.6789 32.3282 94.1026 31.7815 97.271L17.919 91.5124C16.2179 83.017 17.4863 73.4252 18.3879 68.487L31.4675 73.9205ZM43.3471 20.7001C47.3617 23.9705 61.6423 35.0018 75.0725 38.0661V62.1293H38.5073V54.2016C38.5073 53.6442 38.3314 40.956 23.8556 30.2622C28.8901 26.3252 38.4549 22.4402 43.3471 20.7001ZM111.653 20.6998C116.544 22.4381 126.108 26.3212 131.145 30.2619C116.669 40.956 116.493 53.6442 116.493 54.2016V62.1296H79.9268V38.0664C93.3573 35.0018 107.638 23.9699 111.653 20.6998ZM136.612 68.487C137.514 73.4255 138.782 83.0176 137.081 91.5124L123.219 97.271C122.672 94.1023 121.928 91.6786 121.502 90.441C122.291 88.1193 124.148 81.6641 123.532 73.9205L136.612 68.487ZM79.9268 113.904V92.8707H117.184C118.242 96.2904 120.347 104.986 117.884 113.904H79.9268ZM37.1159 113.904C34.6674 105.019 36.7672 96.2977 37.8198 92.8707H75.0731V113.904H37.1159ZM117.219 66.9833C120.181 75.8565 118.198 84.5858 117.172 88.0167H79.9268V66.9833H117.219ZM75.0731 88.0167H37.8277C36.8008 84.5828 34.8188 75.8549 37.7804 66.9833H75.0731V88.0167ZM77.4986 22.8468C74.2227 20.6913 65.0986 14.2697 57.2084 4.85374H97.7909C89.9158 14.2503 80.7766 20.6874 77.4986 22.8468ZM135.996 63.4873L122.798 68.9699C122.446 67.3657 121.974 65.7354 121.346 64.0989V54.2158C121.352 53.7529 121.629 43.1578 134.332 33.9435C137.221 39.6858 138.003 52.2059 135.996 63.4873ZM108.116 17.31C103.932 20.6525 91.4519 30.0533 79.9271 33.0743V27.0645C83.4122 24.8055 93.8895 17.5374 102.694 6.5318C102.7 6.52302 102.706 6.51394 102.713 6.50485L108.116 17.31ZM52.2872 6.50516C52.2938 6.51394 52.2996 6.52332 52.3066 6.5321C61.1107 17.5377 71.5883 24.8055 75.0731 27.0645V33.074C63.561 30.054 51.0714 20.6513 46.8849 17.3094L52.2872 6.50516ZM20.6678 33.9435C33.3711 43.1578 33.6481 53.7526 33.6533 54.2016V64.0989C33.0257 65.7354 32.5537 67.366 32.2017 68.9699L19.0037 63.4873C16.9971 52.2056 17.7788 39.6858 20.6678 33.9435ZM20.6263 132.171C20.6269 132.158 20.6272 132.145 20.6275 132.133L20.8034 126.543C21.236 126.775 21.6777 126.995 22.14 127.187L31.6083 131.12C32.0624 134.46 33.5328 137.545 35.865 139.974C36.6071 140.747 37.4157 141.429 38.2766 142.018L22.1015 134.741C21.1531 134.247 20.5751 133.243 20.6263 132.171ZM43.6847 149.984V144.323C44.704 144.535 45.7533 144.645 46.8216 144.645H75.0731V150.146H43.8466C43.7573 150.146 43.6847 150.073 43.6847 149.984ZM111.153 150.146H79.9268V144.645H108.179C109.247 144.645 110.296 144.535 111.315 144.323V149.984C111.315 150.073 111.242 150.146 111.153 150.146ZM132.898 134.741L116.722 142.018C117.584 141.429 118.393 140.747 119.135 139.974C121.467 137.545 122.938 134.46 123.392 131.12L132.86 127.187C133.283 127.011 133.69 126.812 134.089 126.602L134.374 132.172C134.425 133.243 133.847 134.247 132.898 134.741Z" fill="black"/>
</g>
<defs>
<clipPath id="clip0_65_3356">
<rect width="155" height="155" fill="white"/>
</clipPath>
</defs>
</svg>
