<svg width="800" height="800" viewBox="0 0 800 800" fill="none" xmlns="http://www.w3.org/2000/svg">
<g clip-path="url(#clip0_379_4027)">
<path d="M613.771 560.336L601.186 144.975C600.714 129.388 591.243 115.491 576.911 109.347L506.884 79.3345H293.106L223.431 109.469C208.907 115.527 199.273 129.52 198.795 145.25L186.217 560.335L250.365 584.106L239.662 787.474H560.328L549.623 584.106L613.771 560.336Z" fill="#FFEAC3"/>
<path d="M480.154 119.419L520.236 106.058C520.236 106.058 506.883 12.5296 399.991 12.5281C293.096 12.5296 279.744 106.058 279.744 106.058L319.827 119.419L293.105 159.502L399.344 289.352L506.874 159.502L480.154 119.419Z" fill="#FAEBC8"/>
<path d="M445.752 141.092C450.841 126.749 453.441 111.641 453.441 96.4204V22.3767C438.896 16.3813 421.392 12.5298 399.992 12.5298C378.596 12.5298 361.096 16.3782 346.552 22.372V96.422C346.552 111.642 349.152 126.749 354.241 141.094L399.995 266.391L445.752 141.092Z" fill="#EBC9A0"/>
<path d="M266.382 279.753V211.327C266.382 195.145 260.509 179.513 249.853 167.334L208.64 120.233C202.703 127.075 199.081 135.831 198.795 145.252L186.217 560.336L250.365 584.108L266.382 279.753Z" fill="#EBC9A0"/>
<path d="M186.217 560.336L250.365 584.108L253.67 521.3L188.134 497.106L186.217 560.336Z" fill="#FFEAC3"/>
<path d="M533.607 279.753V211.327C533.607 195.145 539.481 179.513 550.137 167.334L591.351 120.233C597.289 127.075 600.911 135.831 601.196 145.252L613.775 560.336L549.626 584.108L533.607 279.753Z" fill="#EBC9A0"/>
<path d="M613.773 560.336L549.628 584.108L546.32 521.3L611.858 497.106L613.773 560.336Z" fill="#FFEAC3"/>
<path d="M346.55 22.3704V65.9751H453.439V22.3767C438.894 16.3813 421.39 12.5298 399.99 12.5298C378.597 12.5282 361.094 16.3767 346.55 22.3704Z" fill="#F5DCB4"/>
<path d="M613.708 144.597C613.091 124.222 600.585 105.866 581.845 97.8345L522.256 72.297C519.216 65.8548 515.338 58.936 510.394 52.0126C493.449 28.2876 460.539 0.00633314 399.997 0.00320814C399.991 -0.00147936 399.997 0.00164564 399.994 0.00320814H399.991C339.45 0.00633314 306.539 28.2876 289.594 52.0126C284.344 59.361 280.294 66.7095 277.175 73.4845L218.613 97.9126C199.595 105.844 186.903 124.277 186.278 144.874L173.7 559.956C173.541 565.214 176.685 570.013 181.569 571.966L237.291 594.255L227.156 786.814C226.977 790.247 228.214 793.6 230.578 796.095C232.944 798.588 236.228 800 239.666 800H560.333C563.77 800 567.055 798.588 569.42 796.095C571.786 793.602 573.024 790.247 572.842 786.814L562.708 594.255L618.43 571.966C623.313 570.011 626.456 565.213 626.299 559.956L613.708 144.597ZM505.439 97.786L476.194 107.534C472.489 108.769 469.574 111.659 468.306 115.355C467.041 119.047 467.566 123.117 469.733 126.367L491.283 158.692L423.164 240.949L457.556 145.28C463.136 129.549 465.966 113.111 465.966 96.422V43.111C490.872 59.8657 501.342 84.1938 505.439 97.786ZM359.078 78.5016H440.916V96.4235C440.916 110.25 438.57 123.872 433.966 136.856L399.772 231.974L366.047 136.905C361.424 123.87 359.08 110.252 359.08 96.4235V78.5016H359.078ZM399.988 25.0563C415.82 25.0563 429.338 27.3141 440.913 31.0532V53.4485H359.075V31.0485C370.65 27.311 384.163 25.0548 399.988 25.0563ZM334.027 43.1063V96.4235C334.027 113.113 336.856 129.55 342.436 145.281L376.713 241.903L308.67 158.741L330.252 126.367C332.417 123.119 332.944 119.047 331.678 115.355C330.411 111.661 327.494 108.77 323.791 107.534L294.549 97.7876C298.652 84.1766 309.128 59.8532 334.027 43.1063ZM199.003 551.958L200.116 515.28L240.594 531.47L238.68 567.83L199.003 551.958ZM264.428 555.277L312.07 531.455C318.258 528.359 320.767 520.838 317.672 514.649C314.578 508.463 307.056 505.953 300.867 509.047L265.941 526.509L278.892 280.409C279.256 273.5 273.95 267.606 267.041 267.242C260.122 266.828 254.238 272.183 253.874 279.092L241.983 505.044L200.922 488.62L211.316 145.633C211.644 134.844 218.291 125.189 228.253 121.033L267.302 104.745C266.686 110.57 270.189 116.075 275.786 117.941L300.313 126.116L282.688 152.555C279.633 157.136 279.928 163.174 283.416 167.434L383.128 289.305L365.62 310.447C353.864 324.645 347.391 342.614 347.391 361.045V774.949H252.869L264.428 555.277ZM372.439 774.949V361.042C372.439 348.431 376.869 336.136 384.911 326.422L516.524 167.489C520.053 163.227 520.369 157.156 517.299 152.553L499.674 126.114L524.2 117.939C529.942 116.025 533.494 110.278 532.639 104.286C532.633 104.238 532.616 104.124 532.592 103.978L571.978 120.856C581.794 125.064 588.345 134.678 588.669 145.352L599.07 488.617L558.01 505.041L546.119 279.089C545.755 272.181 539.869 266.827 532.952 267.239C526.042 267.603 520.738 273.497 521.1 280.406L534.052 526.506L499.125 509.044C492.939 505.948 485.414 508.458 482.32 514.645C479.225 520.833 481.734 528.358 487.922 531.452L535.564 555.274L547.127 774.945H372.439V774.949ZM561.314 567.83L559.4 531.47L599.878 515.28L600.989 551.958L561.314 567.83Z" fill="black"/>
<path d="M413.49 387.477H413.356C406.439 387.477 400.896 393.083 400.896 400.003C400.896 406.923 406.571 412.53 413.489 412.53C420.406 412.53 426.015 406.923 426.015 400.003C426.015 393.083 420.409 387.477 413.49 387.477Z" fill="black"/>
<path d="M413.49 547.809H413.356C406.439 547.809 400.896 553.416 400.896 560.336C400.896 567.255 406.571 572.862 413.489 572.862C420.406 572.862 426.015 567.256 426.015 560.336C426.017 553.417 420.409 547.809 413.49 547.809Z" fill="black"/>
<path d="M413.49 467.644H413.356C406.439 467.644 400.896 473.25 400.896 480.17C400.896 487.089 406.571 492.697 413.489 492.697C420.406 492.697 426.015 487.091 426.015 480.17C426.017 473.25 420.409 467.644 413.49 467.644Z" fill="black"/>
</g>
<defs>
<clipPath id="clip0_379_4027">
<rect width="800" height="800" fill="white"/>
</clipPath>
</defs>
</svg>
