<svg width="30" height="30" viewBox="0 0 30 30" fill="none" xmlns="http://www.w3.org/2000/svg">
<path d="M10 27.0625H20C20.2416 27.0625 20.4375 27.2584 20.4375 27.5C20.4375 27.7416 20.2416 27.9375 20 27.9375H10C9.75838 27.9375 9.5625 27.7416 9.5625 27.5C9.5625 27.2584 9.75838 27.0625 10 27.0625ZM2.5 19.5625H27.5C27.7416 19.5625 27.9375 19.7584 27.9375 20C27.9375 20.2416 27.7416 20.4375 27.5 20.4375H2.5C2.25838 20.4375 2.0625 20.2416 2.0625 20C2.0625 19.7584 2.25838 19.5625 2.5 19.5625Z" fill="#FFEF5E" stroke="#A79600"/>
<path opacity="0.5" d="M6.25 23.3125H23.75C23.9916 23.3125 24.1875 23.5084 24.1875 23.75C24.1875 23.9916 23.9916 24.1875 23.75 24.1875H6.25C6.00838 24.1875 5.8125 23.9916 5.8125 23.75C5.8125 23.5084 6.00838 23.3125 6.25 23.3125Z" fill="#FFEF5E" stroke="#A79600"/>
<path d="M14.9961 3.03809C15.0016 3.07916 14.9959 3.12593 14.9795 3.16504C14.9719 3.18316 14.9631 3.19804 14.9531 3.20996L14.9199 3.23828C12.4218 4.74798 10.75 7.49101 10.75 10.625C10.75 15.3885 14.6115 19.25 19.375 19.25C22.5091 19.25 25.2511 17.5773 26.7607 15.0791L26.7617 15.0801C26.7757 15.057 26.7986 15.0358 26.835 15.0205C26.8741 15.0041 26.9208 14.9984 26.9619 15.0039C26.9787 15.0062 26.9907 15.0105 26.999 15.0137C26.9973 16.6009 26.6886 18.115 26.1279 19.5H3.87207C3.30979 18.111 3 16.5922 3 15C3 8.37746 8.36467 3.00791 14.9854 3C14.9887 3.00835 14.9937 3.02052 14.9961 3.03809Z" fill="#FFEF5E" stroke="#A79600"/>
<path d="M24.2168 3.06641C24.2475 2.98911 24.345 2.97932 24.3926 3.03711L24.4102 3.06641L24.9482 4.43555C25.0461 4.6848 25.2304 4.88896 25.4658 5.01172L25.5693 5.05957L26.9336 5.59961C26.9623 5.61096 26.9755 5.62538 26.9834 5.6377C26.9929 5.65258 27 5.67411 27 5.69922C27 5.72413 26.9929 5.74494 26.9834 5.75977C26.9795 5.76588 26.9746 5.77283 26.9668 5.7793L26.9336 5.79785L25.5693 6.33789C25.32 6.43663 25.117 6.62265 24.9951 6.8584L24.9482 6.96191L24.4102 8.33105C24.3795 8.40898 24.281 8.4188 24.2334 8.36035L24.2168 8.33105L23.6787 6.96191C23.5809 6.71277 23.3964 6.50849 23.1611 6.38574L23.0566 6.33789L21.6924 5.79785C21.6638 5.78647 21.6505 5.77207 21.6426 5.75977C21.6332 5.74495 21.626 5.72403 21.626 5.69922C21.626 5.67411 21.633 5.65258 21.6426 5.6377C21.6466 5.63144 21.6521 5.62478 21.6602 5.61816L21.6924 5.59961L23.0566 5.05957C23.3059 4.96092 23.5089 4.77556 23.6309 4.54004L23.6787 4.43555L24.2168 3.06641Z" fill="#FFEF5E" stroke="#A79600"/>
<path d="M19.3818 10.3457C19.4126 10.2675 19.5111 10.2575 19.5586 10.3164L19.5752 10.3457L19.7715 10.8447C19.8694 11.0938 20.0538 11.2982 20.2891 11.4209L20.3936 11.4678L20.8906 11.665C20.9194 11.6764 20.9325 11.6908 20.9404 11.7031C20.95 11.718 20.957 11.7395 20.957 11.7646C20.957 11.7895 20.9499 11.8104 20.9404 11.8252C20.9365 11.8313 20.9316 11.8383 20.9238 11.8447L20.8906 11.8633L20.3936 12.0605C20.1442 12.1592 19.9402 12.3444 19.8184 12.5801L19.7715 12.6846L19.5752 13.1836C19.5444 13.2613 19.446 13.2713 19.3984 13.2129L19.3818 13.1836L19.1855 12.6846C19.0737 12.3996 18.8486 12.1733 18.5635 12.0605H18.5645L18.0664 11.8633C18.0378 11.8519 18.0245 11.8375 18.0166 11.8252C18.0072 11.8104 18.0001 11.7895 18 11.7646C18 11.7396 18.0071 11.718 18.0166 11.7031C18.0206 11.6969 18.0261 11.6902 18.0342 11.6836L18.0664 11.665L18.5645 11.4678C18.849 11.355 19.0737 11.1292 19.1855 10.8447L19.3818 10.3457Z" fill="#FFEF5E" stroke="#A79600"/>
</svg>
