<svg width="95" height="95" viewBox="0 0 95 95" fill="none" xmlns="http://www.w3.org/2000/svg">
<g filter="url(#filter0_d_10_898)">
<path d="M17.2187 26.7188C16.5889 26.7188 15.9848 26.969 15.5394 27.4144C15.094 27.8598 14.8438 28.4639 14.8438 29.0937V37.7546C14.8427 39.0333 15.3368 40.2627 16.2223 41.1851C17.1078 42.1076 18.3161 42.6514 19.5937 42.7025V29.0937C19.5937 28.4639 19.3435 27.8598 18.8981 27.4144C18.4527 26.969 17.8486 26.7188 17.2187 26.7188ZM19.6887 48.64C16.8196 48.6129 14.0772 47.4541 12.058 45.4156C10.0388 43.3771 8.90612 40.6238 8.90625 37.7546V29.0937C8.90625 28.0021 9.12126 26.9212 9.539 25.9127C9.95674 24.9042 10.569 23.9878 11.3409 23.2159C12.1128 22.444 13.0292 21.8317 14.0377 21.414C15.0462 20.9963 16.1271 20.7813 17.2187 20.7812C18.3104 20.7813 19.3913 20.9963 20.3998 21.414C21.4083 21.8317 22.3247 22.444 23.0966 23.2159C23.8685 23.9878 24.4808 24.9042 24.8985 25.9127C25.3162 26.9212 25.5312 28.0021 25.5312 29.0937V30.7483L42.2117 25.8598C45.6646 24.8478 49.3354 24.8478 52.7883 25.8598L69.4687 30.7483V29.0937C69.4687 28.0021 69.6838 26.9212 70.1015 25.9127C70.5192 24.9042 71.1315 23.9878 71.9034 23.2159C72.6753 22.444 73.5917 21.8317 74.6002 21.414C75.6087 20.9963 76.6896 20.7812 77.7812 20.7812C78.8729 20.7812 79.9538 20.9963 80.9623 21.414C81.9708 21.8317 82.8872 22.444 83.6591 23.2159C84.431 23.9878 85.0433 24.9042 85.461 25.9127C85.8787 26.9212 86.0938 28.0021 86.0938 29.0937V37.7546C86.0939 40.6238 84.9612 43.3771 82.942 45.4156C80.9228 47.4541 78.1804 48.6129 75.3112 48.64C74.7339 55.6191 71.5537 62.126 66.4018 66.8693C61.2499 71.6126 54.5029 74.2456 47.5 74.2456C40.4971 74.2456 33.7501 71.6126 28.5982 66.8693C23.4463 62.126 20.2661 55.6191 19.6887 48.64ZM75.4062 42.7025C76.6839 42.6514 77.8922 42.1076 78.7777 41.1851C79.6632 40.2627 80.1573 39.0333 80.1562 37.7546V29.0937C80.1562 28.7819 80.0948 28.473 79.9755 28.1849C79.8561 27.8967 79.6812 27.6349 79.4606 27.4144C79.2401 27.1938 78.9783 27.0189 78.6901 26.8995C78.402 26.7802 78.0931 26.7188 77.7812 26.7188C77.4694 26.7188 77.1605 26.7802 76.8724 26.8995C76.5842 27.0189 76.3224 27.1938 76.1019 27.4144C75.8813 27.6349 75.7064 27.8967 75.587 28.1849C75.4677 28.473 75.4062 28.7819 75.4062 29.0937V42.7025Z" fill="white"/>
</g>
<defs>
<filter id="filter0_d_10_898" x="-4" y="0" width="103" height="103" filterUnits="userSpaceOnUse" color-interpolation-filters="sRGB">
<feFlood flood-opacity="0" result="BackgroundImageFix"/>
<feColorMatrix in="SourceAlpha" type="matrix" values="0 0 0 0 0 0 0 0 0 0 0 0 0 0 0 0 0 0 127 0" result="hardAlpha"/>
<feOffset dy="4"/>
<feGaussianBlur stdDeviation="2"/>
<feComposite in2="hardAlpha" operator="out"/>
<feColorMatrix type="matrix" values="0 0 0 0 0 0 0 0 0 0 0 0 0 0 0 0 0 0 0.25 0"/>
<feBlend mode="normal" in2="BackgroundImageFix" result="effect1_dropShadow_10_898"/>
<feBlend mode="normal" in="SourceGraphic" in2="effect1_dropShadow_10_898" result="shape"/>
</filter>
</defs>
</svg>
