<svg width="96" height="100" viewBox="0 0 96 100" fill="none" xmlns="http://www.w3.org/2000/svg">
<g filter="url(#filter0_d_10_912)">
<path d="M43.5409 23.7499C54.4659 23.7499 63.3326 32.6166 63.3326 43.5416C63.3326 54.4666 54.4659 63.3333 43.5409 63.3333C32.6159 63.3333 23.7492 54.4666 23.7492 43.5416C23.7492 32.6166 32.6159 23.7499 43.5409 23.7499ZM43.5409 3.95825L53.0013 17.4958C50.0721 16.427 46.8659 15.8333 43.5409 15.8333C40.2159 15.8333 37.0096 16.427 34.0805 17.4958L43.5409 3.95825ZM9.26172 23.7499L25.7284 22.3645C23.2716 24.4396 21.1838 26.9155 19.5534 29.6874C17.8117 32.6166 16.8221 35.6249 16.268 38.752L9.26172 23.7499ZM9.34089 63.3333L16.3076 48.4103C17.4708 54.7933 20.7978 60.5806 25.7284 64.7978L9.34089 63.3333ZM77.7805 23.7499L70.7742 38.752C69.6542 32.3422 66.3202 26.5287 61.3534 22.3249L77.7805 23.7499ZM91.0409 51.4583H83.1242C83.1242 59.5728 80.0367 67.6874 73.8617 73.8624C70.9239 76.8092 67.4315 79.1449 63.5861 80.7347C59.7408 82.3245 55.6186 83.1369 51.4576 83.1249V91.0416C61.5909 91.0416 71.7242 87.0833 79.443 79.4437C87.1617 71.8041 91.0409 61.5916 91.0409 51.4583ZM75.2076 51.4583H67.2909C67.2909 55.4166 65.7471 59.5728 62.6596 62.6603C59.5721 65.7478 55.4159 67.2916 51.4576 67.2916V75.2083C54.5779 75.2135 57.6686 74.6027 60.5524 73.411C63.4363 72.2193 66.0565 70.4701 68.263 68.2637C70.4694 66.0572 72.2186 63.437 73.4103 60.5532C74.602 57.6693 75.2128 54.5786 75.2076 51.4583Z" fill="white"/>
</g>
<defs>
<filter id="filter0_d_10_912" x="-4" y="0" width="103" height="103" filterUnits="userSpaceOnUse" color-interpolation-filters="sRGB">
<feFlood flood-opacity="0" result="BackgroundImageFix"/>
<feColorMatrix in="SourceAlpha" type="matrix" values="0 0 0 0 0 0 0 0 0 0 0 0 0 0 0 0 0 0 127 0" result="hardAlpha"/>
<feOffset dy="4"/>
<feGaussianBlur stdDeviation="2"/>
<feComposite in2="hardAlpha" operator="out"/>
<feColorMatrix type="matrix" values="0 0 0 0 0 0 0 0 0 0 0 0 0 0 0 0 0 0 0.25 0"/>
<feBlend mode="normal" in2="BackgroundImageFix" result="effect1_dropShadow_10_912"/>
<feBlend mode="normal" in="SourceGraphic" in2="effect1_dropShadow_10_912" result="shape"/>
</filter>
</defs>
</svg>
