<svg width="165" height="165" viewBox="0 0 165 165" fill="none" xmlns="http://www.w3.org/2000/svg">
<g clip-path="url(#clip0_65_4157)">
<path d="M41.4955 151.351C39.6802 151.351 38.2538 149.925 38.2538 148.109V66.9357L29.1769 74.5862C29.0472 74.7159 28.9176 74.7159 28.9176 74.8456C27.6208 75.6236 26.1945 76.1423 24.7681 76.1423C22.1747 76.1423 19.8406 74.8456 18.4143 72.7709L4.53958 51.894C2.20552 48.3929 3.24288 43.7248 6.74397 41.3907L45.256 14.549C45.5153 14.4193 45.7747 14.16 46.1637 14.16C46.2933 14.16 49.7944 12.993 54.7219 12.8633H58.7417C59.6494 12.8633 60.557 13.2523 61.0757 13.9006C61.7241 14.549 61.9834 15.4567 61.8538 16.3644C61.8538 16.494 61.8537 16.7534 61.7241 16.8831C61.9834 26.6083 72.2274 35.6852 83.1196 35.6852C94.0119 35.6852 104.256 26.6083 104.515 16.8831C104.515 16.7534 104.515 16.494 104.386 16.3644C104.256 15.4567 104.645 14.549 105.164 13.9006C105.682 13.2523 106.59 12.8633 107.498 12.8633H115.407C118.52 12.8633 120.983 14.2897 121.243 14.4193C121.372 14.4193 121.372 14.549 121.502 14.549L158.717 41.3907C162.089 43.5951 163.126 48.3929 160.792 51.894L146.917 71.6038C145.621 73.6785 143.157 74.9752 140.563 74.9752C139.007 74.9752 137.581 74.5862 136.414 73.6785C136.284 73.6785 136.284 73.5489 136.155 73.4192L127.856 66.5467L127.596 148.109C127.596 149.925 126.17 151.351 124.355 151.351H41.4955Z" fill="#B3DBFE"/>
<path d="M57.9636 13.2522V150.702L74.8207 151.999V35.0368C67.4295 31.9247 61.8537 25.0522 61.724 17.9203C61.8537 17.7906 61.8537 17.5313 61.8537 17.4016C61.9833 16.4939 61.724 15.5863 61.0756 14.9379C60.557 14.2896 59.6493 13.9005 58.7416 13.9005H57.9636V13.2522ZM107.498 13.2522C106.59 13.2522 105.682 13.6412 105.163 14.2896C104.645 14.9379 104.256 15.8456 104.385 16.7533C104.515 16.883 104.515 17.1423 104.515 17.272C104.256 24.4038 98.68 31.2763 91.4184 34.3884V151.351H107.757V13.9005L107.498 13.2522ZM124.355 17.0645V20.7731L160.792 46.3181L151.715 59.5444L124.355 40.3532V151.351C126.17 151.351 127.596 150.054 127.596 148.757L127.856 66.9356L136.155 73.8081V74.0675C137.451 74.9751 138.748 75.3642 140.045 75.3642C142.638 75.3642 145.232 74.0675 146.528 71.9927L160.792 52.2829C163.385 48.7818 162.089 43.984 158.199 41.7796L124.355 17.0126V17.0645ZM41.3658 17.661L6.74389 41.7796C3.2039 44.1137 2.16654 48.7818 4.5006 52.2829L18.3753 73.1598C19.8017 75.2345 22.1357 76.5312 24.7291 76.5312C26.1555 76.5312 27.5819 76.0125 28.8786 75.2345C28.8786 75.1048 29.0082 75.1048 29.1379 74.9751L38.2148 67.3246V148.757C38.2148 150.054 39.5115 151.351 41.3269 151.351V40.8719L13.3182 60.4521L4.04676 47.3554L41.3917 21.1621L41.2621 17.661H41.3658Z" fill="#85AFDD"/>
<path d="M115.536 16.4941C117.87 16.4941 119.556 17.6611 119.556 17.6611L156.771 44.3731C158.846 45.6698 159.365 48.3929 157.938 50.4676L144.064 70.0478C143.286 71.3445 141.859 71.9929 140.433 71.9929C139.655 71.9929 138.747 71.7335 137.969 71.2148L124.354 60.0632L124.094 148.498H41.4946V60.3225L26.9715 72.5115C26.1935 73.0302 25.4155 73.2896 24.5078 73.2896C23.0814 73.2896 21.6551 72.6412 20.877 71.3445L7.13202 50.4676C5.83532 48.3929 6.354 45.7995 8.29905 44.3731L46.8111 17.5314C46.8111 17.5314 49.9231 16.4941 54.3319 16.3644H58.3517V16.6237V16.8831C58.3517 28.5534 70.1517 39.316 82.989 39.316C95.8263 39.316 107.626 28.5534 107.626 16.8831V16.6237V16.3644H115.277H115.536C115.407 16.4941 115.536 16.4941 115.536 16.4941ZM115.536 10.0106H115.277H107.626C105.811 10.0106 104.125 10.7886 102.829 12.0853C101.661 13.382 101.013 15.1974 101.143 17.0127V17.5314C100.754 25.4413 91.9362 32.9622 82.989 32.9622C74.0418 32.9622 65.2242 25.4413 64.8352 17.5314V17.0127C64.9649 15.1974 64.4462 13.382 63.1495 12.0853C61.9825 10.7886 60.1671 10.0106 58.3517 10.0106H54.3319H54.2022C49.0154 10.1402 45.255 11.3073 44.7363 11.4369C44.088 11.6963 43.5693 11.9556 43.0506 12.3446L4.79796 39.0567C-0.129505 42.4281 -1.42621 49.0412 1.81555 54.0984L15.6902 74.9753C17.765 77.9577 21.1364 79.7731 24.7671 79.7731C26.8419 79.7731 28.9166 79.1247 30.732 77.9577C30.9913 77.828 31.121 77.6983 31.3803 77.5687L35.1408 74.3269V148.498C35.1408 152.129 37.9935 154.982 41.6243 154.982H124.354C127.985 154.982 130.837 152.129 130.837 148.498L130.967 73.6786L133.949 76.1423C134.079 76.272 134.338 76.4016 134.468 76.5313C136.283 77.6983 138.358 78.3467 140.433 78.3467C144.064 78.3467 147.435 76.5313 149.38 73.5489L163.125 54.0984L163.255 53.9687C166.497 49.0413 165.2 42.2984 160.272 39.0567L123.965 11.9556C123.835 11.8259 123.705 11.8259 123.576 11.6963C123.187 11.4369 120.204 9.75122 116.314 9.75122L115.536 10.0106Z" fill="#85AFDD"/>
</g>
<defs>
<clipPath id="clip0_65_4157">
<rect width="165" height="165" fill="white"/>
</clipPath>
</defs>
</svg>
