<svg width="265" height="265" viewBox="0 0 265 265" fill="none" xmlns="http://www.w3.org/2000/svg">
<path d="M117.996 50.3813C117.313 49.8586 102.59 38.1594 98.3946 21.7556C91.5811 24.4985 75.4131 31.0571 57.4001 41.3907C61.5293 46.7068 61.2275 56.4429 61.2275 56.4429C61.2282 56.4659 61.2268 97.9675 61.2218 98.0391L53.4581 207.349L53.0488 242.01C53.0488 242.011 53.8297 245.989 62.9964 249.846C72.0249 253.644 90.7832 258.15 129.078 258.414V42.9305L123.085 49.9138C121.645 51.4318 119.894 51.8362 117.996 50.3813Z" fill="#CBE8DE"/>
<path d="M54.11 56.3809C54.0688 52.3758 53.3861 48.8808 52.2052 46.3694C48.6982 50.6138 46.3499 55.8293 44.6878 62.6318C42.1616 72.9635 12.3091 178.317 11.4001 194.184C10.3424 212.656 12.3468 230.297 13.2459 236.96H35.8707C38.2161 232.691 44.2465 220.712 46.3577 206.885L54.1115 97.7149C54.1129 97.7149 54.1108 56.4591 54.11 56.3809Z" fill="#CBE8DE"/>
<path d="M14.8471 251.555H31.5889L33.557 243.535H14.0371L14.8471 251.555Z" fill="#A9D8C8"/>
<path d="M127.47 34.2204C116.982 27.0905 111.656 17.8285 109.045 11.3987L104.797 17.8212C106.752 29.3001 115.456 38.791 119.927 43.0104L127.47 34.2204Z" fill="#BBD3DF"/>
<path d="M137.807 34.2204L145.346 43.0051C149.818 38.7725 158.529 29.2586 160.479 17.8205L156.231 11.3979C153.621 17.829 148.295 27.0904 137.807 34.2204Z" fill="#BBD3DF"/>
<path d="M157.176 102.66L169.921 108.123L182.667 102.66V81.5249H157.176V102.66Z" fill="#A9D8C8"/>
<path d="M220.589 62.6318C218.926 55.8299 216.579 50.615 213.072 46.3706C211.894 48.8801 211.21 52.3724 211.167 56.3762C211.166 56.4577 211.164 97.7148 211.164 97.7148L218.919 206.885C221.031 220.711 227.059 232.689 229.407 236.96H252.03C252.929 230.292 254.934 212.635 253.878 194.184C252.968 178.317 223.115 72.9634 220.589 62.6318Z" fill="#CBE8DE"/>
<path d="M233.686 251.555H250.427L251.237 243.535H231.717L233.686 251.555Z" fill="#A9D8C8"/>
<path d="M204.053 98.0391C204.048 97.9675 204.049 56.3107 204.049 56.3107C204.09 52.5081 204.692 46.1105 207.876 41.3914C205.83 39.8201 181.947 27.4306 166.88 21.7556C162.686 38.1594 147.921 49.8145 147.28 50.3813C146.093 51.4318 143.803 51.7428 142.191 49.9145L136.197 42.9305V258.414C174.492 258.15 193.251 253.644 202.279 249.846C211.445 245.989 212.179 242.332 212.226 242.015C212.226 242.013 212.226 242.011 212.226 242.009L211.818 207.349L204.053 98.0391ZM189.786 104.759C189.786 106.038 188.981 107.202 187.724 107.741L171.42 114.729L171.418 114.726C170.951 114.926 170.44 115.035 169.919 115.035C169.417 115.035 168.908 114.937 168.424 114.729L152.119 107.741C150.862 107.202 150.058 106.038 150.058 104.759V78.2377C150.058 76.4225 151.651 74.9505 153.617 74.9505H186.227C188.192 74.9505 189.786 76.4225 189.786 78.2377V104.759Z" fill="#CBE8DE"/>
<path d="M150.486 6.57471H132.639H114.809C116.666 12.0558 121.455 22.3244 132.64 29.545C143.888 22.2921 148.649 12.0459 150.486 6.57471Z" fill="#A9D8C8"/>
<path d="M186.226 74.9502H153.616C151.65 74.9502 150.057 76.4222 150.057 78.2374V104.759C150.057 106.038 150.861 107.202 152.118 107.741L168.423 114.729C168.907 114.936 169.416 115.035 169.918 115.034C170.439 115.034 170.95 114.926 171.417 114.726L171.419 114.729L187.723 107.741C188.98 107.202 189.785 106.038 189.785 104.759V78.2374C189.785 76.4229 188.191 74.9502 186.226 74.9502ZM182.667 102.66L169.921 108.123L157.175 102.66V81.5253H182.667V102.66H182.667Z" fill="#3F352F"/>
<path d="M227.531 61.1834C225.212 51.6939 221.42 44.5804 215.478 38.9685C215.422 38.9054 200.971 27.9662 166.617 14.492L158.072 1.57326C157.404 0.561454 156.206 -0.0210381 154.953 0.00525953V0H132.637H110.32V0.00525953C109.067 -0.0210381 107.87 0.561454 107.201 1.57326L98.6564 14.492C62.7863 28.7039 49.8556 38.9041 49.8 38.9665C43.8564 44.5784 40.7829 49.8373 37.7434 61.1841C35.0186 71.358 5.23872 177.3 4.29059 193.837C2.94599 217.328 6.30999 238.865 6.59614 240.639L8.06175 255.148C8.23258 256.837 9.76796 258.129 11.6051 258.129H34.4314C36.0935 258.129 37.5349 257.066 37.9022 255.568L41.3737 241.428C42.0549 240.274 43.9305 236.975 46.0453 232.216L45.9307 241.901C45.905 242.796 46.1171 245.85 49.7018 249.403C56.8804 256.518 77.0957 265 132.636 265C188.177 265 208.392 256.518 215.57 249.403C219.155 245.85 219.366 242.796 219.341 241.901L219.227 232.213C221.342 236.973 223.218 240.274 223.899 241.428L227.371 255.568C227.739 257.065 229.179 258.129 230.841 258.129H253.668C255.505 258.129 257.041 256.837 257.211 255.148L258.676 240.639C258.962 238.865 262.327 217.328 260.982 193.837C260.037 177.3 230.031 71.4073 227.531 61.1834ZM156.23 11.3987L160.478 17.8213C158.528 29.2588 149.818 38.7732 145.345 43.0058L137.806 34.2211C148.294 27.0905 153.619 17.8291 156.23 11.3987ZM109.045 11.3987C111.655 17.8285 116.981 27.0905 127.47 34.2205L119.927 43.0104C115.457 38.7916 106.753 29.3002 104.797 17.8213L109.045 11.3987ZM31.5906 251.555H14.8488L14.0388 243.535H33.5594L31.5906 251.555ZM46.3577 206.885C44.2458 220.711 38.2161 232.691 35.8707 236.96H13.2458C12.3461 230.296 10.3424 212.655 11.4001 194.184C12.3091 178.317 42.1616 72.9635 44.6878 62.6318C46.3499 55.8292 48.6975 50.6138 52.2052 46.3693C53.3854 48.8801 54.0688 52.375 54.1093 56.3808C54.11 56.4597 54.1122 97.7148 54.1122 97.7148L46.3577 206.885ZM129.078 258.414C90.7838 258.15 72.0255 253.644 62.997 249.845C53.8303 245.989 53.0494 242.011 53.0494 242.009L53.4587 207.348L61.2224 98.0383C61.2274 97.9666 61.2288 56.4643 61.2281 56.442C61.2281 56.442 61.5299 46.7066 57.4007 41.3899C75.4137 31.0562 91.5817 24.4976 98.3952 21.7547C102.591 38.1585 117.314 49.8577 117.996 50.3804C119.895 51.8353 121.646 51.4309 123.085 49.9136L129.078 42.9302V258.414H129.078ZM114.807 6.57441H132.637H150.484C148.647 12.0456 143.886 22.2919 132.638 29.5447C121.453 22.3241 116.664 12.0555 114.807 6.57441ZM212.225 242.015C212.179 242.331 211.445 245.989 202.278 249.845C193.25 253.644 174.491 258.15 136.196 258.414V42.9296L142.191 49.9136C143.802 51.7419 146.092 51.4309 147.279 50.3804C147.92 49.8136 162.685 38.1585 166.88 21.7547C181.947 27.4298 205.829 39.8186 207.876 41.3905C204.692 46.1103 204.089 52.5078 204.048 56.3098C204.048 56.3098 204.047 97.9659 204.052 98.0383L211.818 207.348L212.225 242.009C212.225 242.011 212.225 242.013 212.225 242.015ZM250.427 251.555H233.686L231.717 243.535H251.237L250.427 251.555ZM252.029 236.96H229.406C227.059 232.689 221.03 220.711 218.918 206.885L211.163 97.7148C211.163 97.7148 211.165 56.4577 211.165 56.3762C211.209 52.3731 211.893 48.8801 213.071 46.3706C216.577 50.6151 218.925 55.8299 220.588 62.6318C223.114 72.9635 252.966 178.317 253.875 194.184C254.932 212.635 252.928 230.292 252.029 236.96Z" fill="#3F352F"/>
</svg>
