<svg width="155" height="155" viewBox="0 0 155 155" fill="none" xmlns="http://www.w3.org/2000/svg">
<path d="M122.224 31.5573C120.942 28.8506 118.215 27.125 115.22 27.125H39.7796C36.7846 27.125 34.0579 28.8506 32.7755 31.5573L0 100.75L23.25 112.375L34.875 89.125V143.375H120.125V89.125L131.75 112.375L155 100.75L122.224 31.5573Z" fill="#7AB9E8"/>
<path d="M122.224 31.5573C120.942 28.8506 118.215 27.125 115.22 27.125H77.5V143.375H120.125V89.125L131.75 112.375L155 100.75L122.224 31.5573Z" fill="#579ADF"/>
<path d="M83.3125 31H71.6875V143.375H83.3125V31Z" fill="#4A82CA"/>
<path d="M108.5 63.9375H93V75.5625H108.5V63.9375Z" fill="#4A82CA"/>
<path d="M108.5 114.312H93V125.937H108.5V114.312Z" fill="#4A82CA"/>
<path d="M62 114.312H46.5V125.937H62V114.312Z" fill="#4A82CA"/>
<path d="M77.5 31L93 46.5L112.375 27.125L96.875 11.625H58.125L42.625 27.125L62 46.5L77.5 31Z" fill="#DFDFE1"/>
<path d="M96.875 11.625H58.125L77.5 31L93 46.5L112.375 27.125L96.875 11.625Z" fill="#CFCDD2"/>
<path d="M93.0025 46.4995L112.377 27.125L96.8768 11.6249L77.5024 30.9993L93.0025 46.4995Z" fill="#CFCDD2"/>
<path d="M77.5 11.625V31L96.875 11.625H77.5Z" fill="#AEADB3"/>
</svg>
