<svg width="172" height="172" viewBox="0 0 172 172" fill="none" xmlns="http://www.w3.org/2000/svg">
<path d="M168.788 136.942C168.788 136.942 159.53 105.538 154.155 91.5766C147.396 74.0272 132.05 39.5869 128.664 38.0013C128.18 37.7729 127.71 37.6116 127.253 37.4907L106.371 29.8447H65.6556L44.8275 37.4772C44.3437 37.5982 43.8465 37.7594 43.3359 38.0013C39.9497 39.6004 24.6443 73.9197 17.845 91.5766C12.47 105.538 3.21153 136.942 3.21153 136.942C2.75465 138.379 3.30559 139.938 4.58215 140.744C7.36371 142.478 13.0881 145.206 22.9781 146.388C24.4562 146.563 25.8672 145.743 26.445 144.373C28.0172 140.597 47.4612 94.0088 49.4231 88.7278L44.2765 149.277C44.169 150.675 45.0962 151.924 46.4534 152.233C51.2103 153.322 64.6881 155.458 86.0403 155.458C107.379 155.458 120.857 153.308 125.627 152.233C126.984 151.924 127.912 150.675 127.804 149.277L122.671 88.8488C124.619 94.0894 144.037 140.583 145.595 144.359C145.875 145.027 146.365 145.585 146.99 145.949C147.616 146.313 148.344 146.462 149.062 146.375C158.939 145.192 164.677 142.464 167.458 140.731C168.708 139.938 169.259 138.379 168.788 136.942Z" fill="#004F7C"/>
<path d="M74.6587 90.8105C76.6847 90.8105 78.3271 89.1681 78.3271 87.1421C78.3271 85.116 76.6847 83.4736 74.6587 83.4736C72.6326 83.4736 70.9902 85.116 70.9902 87.1421C70.9902 89.1681 72.6326 90.8105 74.6587 90.8105Z" fill="#00273D"/>
<path d="M93.6587 90.8105C95.6847 90.8105 97.3271 89.1681 97.3271 87.1421C97.3271 85.116 95.6847 83.4736 93.6587 83.4736C91.6326 83.4736 89.9902 85.116 89.9902 87.1421C89.9902 89.1681 91.6326 90.8105 93.6587 90.8105Z" fill="#00273D"/>
<path d="M74.6587 110.98C76.6847 110.98 78.3271 109.338 78.3271 107.312C78.3271 105.286 76.6847 103.643 74.6587 103.643C72.6326 103.643 70.9902 105.286 70.9902 107.312C70.9902 109.338 72.6326 110.98 74.6587 110.98Z" fill="#00273D"/>
<path d="M93.6587 110.98C95.6847 110.98 97.3271 109.338 97.3271 107.312C97.3271 105.286 95.6847 103.643 93.6587 103.643C91.6326 103.643 89.9902 105.286 89.9902 107.312C89.9902 109.338 91.6326 110.98 93.6587 110.98Z" fill="#00273D"/>
<path d="M74.6587 131.137C76.6847 131.137 78.3271 129.494 78.3271 127.468C78.3271 125.442 76.6847 123.8 74.6587 123.8C72.6326 123.8 70.9902 125.442 70.9902 127.468C70.9902 129.494 72.6326 131.137 74.6587 131.137Z" fill="#00273D"/>
<path d="M93.6587 131.137C95.6847 131.137 97.3271 129.494 97.3271 127.468C97.3271 125.442 95.6847 123.8 93.6587 123.8C91.6326 123.8 89.9902 125.442 89.9902 127.468C89.9902 129.494 91.6326 131.137 93.6587 131.137Z" fill="#00273D"/>
<path d="M74.6587 89.1848C76.6847 89.1848 78.3271 87.5424 78.3271 85.5163C78.3271 83.4903 76.6847 81.8479 74.6587 81.8479C72.6326 81.8479 70.9902 83.4903 70.9902 85.5163C70.9902 87.5424 72.6326 89.1848 74.6587 89.1848Z" fill="#B5840D"/>
<path d="M93.6587 89.1848C95.6847 89.1848 97.3271 87.5424 97.3271 85.5163C97.3271 83.4903 95.6847 81.8479 93.6587 81.8479C91.6326 81.8479 89.9902 83.4903 89.9902 85.5163C89.9902 87.5424 91.6326 89.1848 93.6587 89.1848Z" fill="#B5840D"/>
<path d="M74.6587 109.341C76.6847 109.341 78.3271 107.699 78.3271 105.673C78.3271 103.647 76.6847 102.004 74.6587 102.004C72.6326 102.004 70.9902 103.647 70.9902 105.673C70.9902 107.699 72.6326 109.341 74.6587 109.341Z" fill="#B5840D"/>
<path d="M93.6587 109.341C95.6847 109.341 97.3271 107.699 97.3271 105.673C97.3271 103.647 95.6847 102.004 93.6587 102.004C91.6326 102.004 89.9902 103.647 89.9902 105.673C89.9902 107.699 91.6326 109.341 93.6587 109.341Z" fill="#B5840D"/>
<path d="M74.6587 129.497C76.6847 129.497 78.3271 127.855 78.3271 125.829C78.3271 123.803 76.6847 122.16 74.6587 122.16C72.6326 122.16 70.9902 123.803 70.9902 125.829C70.9902 127.855 72.6326 129.497 74.6587 129.497Z" fill="#B5840D"/>
<path d="M93.6587 129.497C95.6847 129.497 97.3271 127.855 97.3271 125.829C97.3271 123.803 95.6847 122.16 93.6587 122.16C91.6326 122.16 89.9902 123.803 89.9902 125.829C89.9902 127.855 91.6326 129.497 93.6587 129.497Z" fill="#B5840D"/>
<path opacity="0.5" d="M63.6936 97.5564L60.5492 96.1589C59.4608 95.6751 58.1976 96.2664 57.8751 97.422L50.8608 122.577C50.6054 123.491 51.0489 124.472 51.9223 124.875L54.7711 126.192C55.8595 126.689 57.1361 126.111 57.4586 124.969L64.7686 99.8945C65.0508 98.9404 64.5805 97.9461 63.6936 97.5564Z" fill="#2686C6"/>
<path opacity="0.5" d="M109.233 97.5564L112.377 96.1589C113.466 95.6751 114.729 96.2664 115.051 97.422L122.066 122.577C122.321 123.491 121.878 124.472 121.004 124.875L118.155 126.192C117.067 126.689 115.79 126.111 115.468 124.969L108.158 99.8945C107.876 98.9404 108.346 97.9461 109.233 97.5564Z" fill="#2686C6"/>
<path d="M103.226 64.4193C101.762 61.154 101.17 59.2055 101.493 57.9827C102.165 55.3893 104.61 53.7096 106.935 52.3793C106.801 52.2852 96.4135 17.939 96.4135 17.939H75.6795L63.2363 54.3411C72.011 54.6368 88.7541 64.903 95.231 71.9308C98.3216 75.2768 100.74 79.1737 103.132 83.0571C103.791 79.1468 106.236 71.1246 103.226 64.4193Z" fill="#00273D"/>
<path d="M73.0874 17.8718L61.5714 28.4337C61.5714 28.4337 60.3352 38.3103 60.483 44.2631C60.6442 50.7131 61.4102 54.2471 65.6833 52.5137C69.9564 50.7803 75.9899 47.8778 77.4949 47.1253C78.9999 46.3728 80.4914 45.8487 79.5508 48.254C78.6102 50.6593 77.6964 55.4162 77.5889 55.8328C77.1052 57.6334 76.8095 58.9502 81.7545 60.0252C86.6995 61.1003 100.97 64.9165 100.97 64.9165C100.97 64.9165 81.6202 42.7984 79.0536 38.4043C75.9092 33.0293 75.7345 25.7059 75.9092 21.7553C75.9405 20.9995 76.2628 20.2851 76.8088 19.7616C77.3549 19.2381 78.0822 18.9462 78.8386 18.9468H92.7867C94.332 18.9468 95.6086 20.1428 95.7161 21.6746C95.9714 25.5715 96.2267 32.5993 95.098 35.5153C94.0499 38.2162 91.1205 40.5274 88.8092 42.2206C87.143 43.4299 87.4252 44.9887 88.3524 45.9696L94.1708 52.7556C94.1708 52.7556 95.5414 46.3593 96.3611 46.0503C97.1808 45.7412 101.561 50.0278 105.351 51.3984C107.931 52.339 109.14 49.5574 109.409 47.9449C109.678 46.3459 111.115 33.4056 110.793 31.1884C110.457 28.9846 109.14 26.969 107.675 26.0284C106.56 25.3162 100.863 20.2503 98.1483 17.8315C97.2211 16.9984 95.4742 16.5415 94.2245 16.5415H77.8577C75.7614 16.5549 74.028 17.0253 73.0874 17.8718Z" fill="#004F7C"/>
<path d="M110.94 28.9713C109.556 26.9691 108.064 26.257 106.196 24.7385C107.352 26.1226 108.4 27.641 108.884 29.3745C109.771 32.8951 108.4 45.1904 107.983 47.7032C107.755 49.047 106.666 50.2429 105.363 49.8129C104.086 49.3829 103.576 49.0738 98.3621 44.8276C96.3465 43.1882 95.043 43.1882 94.1965 45.6742C93.444 47.8645 92.584 50.8879 92.584 50.8879L95.2312 53.992C95.2312 53.992 96.4943 48.7648 96.8705 47.2866C102.917 51.9091 105.363 52.9841 106.989 52.7826C110.133 52.4063 110.657 49.0738 110.819 48.1601C111.396 43.9542 111.491 39.6542 111.867 35.4213C112.001 33.5535 112.216 30.8123 110.94 28.9713Z" fill="#2686C6"/>
<path d="M98.0256 63.0219C94.1019 61.0332 86.6844 59.77 81.9813 58.6278C80.3822 58.2382 78.7697 57.8485 78.9847 56.6525C79.2131 55.7119 79.9656 52.3257 80.4763 50.8341C80.9869 49.3425 82.1828 46.346 80.5434 45.1635C79.3072 44.2632 77.6678 45.15 77.6678 45.15C77.5872 45.2038 70.3847 48.8991 66.2863 50.5922C64.5663 51.3044 63.1419 50.955 62.7656 48.4019C61.5025 39.8288 61.3413 32.0888 65.5875 24.8191C64.5797 25.8403 62.7253 27.0632 61.6772 28.0307C59.5003 30.006 58.7075 42.6238 60.2125 50.8341C60.75 53.7769 62.8866 55.3357 66.8506 53.4544C70.64 51.6538 78.1381 48.2138 78.1381 48.2138C78.1381 48.2138 76.3778 54.61 76.1091 56.9213C75.8538 59.2325 76.9556 60.4822 81.3766 61.4228C84.2522 62.041 90.5409 62.78 94.2766 64.2582C98.7781 66.0453 100.055 66.6097 103.226 70.5872C102.218 67.0666 101.251 64.6478 98.0256 63.0219Z" fill="#2686C6"/>
<path d="M101.224 155.055L93.3359 155.405C93.3359 155.405 95.5531 154.088 99.1812 153.403C102.554 152.771 102.003 150.178 102.003 147.907V77.9645C102.003 66.8382 98.1062 66.2067 94.72 64.3926L98.0391 63.0085C98.3616 63.1832 104.879 65.0242 104.879 77.9645V149.304C104.879 151.844 105.107 155.055 101.224 155.055Z" fill="#2686C6"/>
<path d="M76.2853 29.6432C76.2853 29.6432 74.4443 25.8672 74.0009 22.4138C73.5037 18.4497 74.8878 17.0253 78.1531 16.555C81.6871 16.0444 90.4618 16.2728 92.6118 16.3535C94.4393 16.4072 97.315 16.555 97.9868 19.565C98.6453 22.4675 95.9443 29.6566 95.9443 29.6566C95.9443 29.6566 95.8906 22.266 95.7428 21.7016C95.595 21.1372 95.3128 19.8203 92.6118 19.4172C86.78 18.5438 83.8103 18.9738 79.7387 18.8528C76.03 18.7453 75.9896 20.6938 75.9493 23.6769C75.9225 26.6466 76.2853 29.6432 76.2853 29.6432Z" fill="#2686C6"/>
<path d="M51.4245 74.4974C51.317 66.0453 47.9038 49.8665 43.7382 42.5028C43.6316 42.3151 43.5734 42.1038 43.5687 41.888C43.564 41.6722 43.613 41.4586 43.7113 41.2665C44.2085 40.3259 45.5388 40.3259 46.036 41.2665C51.5588 51.8015 54.4882 68.0206 52.5129 76.7012C52.5263 76.7012 51.4782 78.3943 51.4245 74.4974Z" fill="#00273D"/>
<path d="M120.575 74.4976C120.682 66.0454 124.095 49.8667 128.261 42.5029C128.476 42.1132 128.489 41.6563 128.288 41.2667C128.177 41.0539 128.01 40.8757 127.805 40.7512C127.6 40.6268 127.365 40.561 127.125 40.561C126.886 40.561 126.65 40.6268 126.445 40.7512C126.241 40.8757 126.074 41.0539 125.963 41.2667C120.44 51.8017 117.511 68.0207 119.486 76.7013C119.473 76.7013 120.521 78.3945 120.575 74.4976Z" fill="#00273D"/>
</svg>
