<svg width="121" height="124" viewBox="0 0 121 124" fill="none" xmlns="http://www.w3.org/2000/svg">
<g filter="url(#filter0_d_9_187)">
<path d="M46.499 9.2998C47.1156 9.2998 47.707 9.54476 48.143 9.98078C48.5791 10.4168 48.824 11.0082 48.824 11.6248V16.2748C48.824 16.8914 48.5791 17.4828 48.143 17.9188C47.707 18.3548 47.1156 18.5998 46.499 18.5998C45.8824 18.5998 45.291 18.3548 44.855 17.9188C44.419 17.4828 44.174 16.8914 44.174 16.2748V11.6248C44.174 11.0082 44.419 10.4168 44.855 9.98078C45.291 9.54476 45.8824 9.2998 46.499 9.2998ZM65.099 46.4998C65.099 51.4328 63.1394 56.1638 59.6512 59.652C56.163 63.1402 51.432 65.0998 46.499 65.0998C41.566 65.0998 36.835 63.1402 33.3468 59.652C29.8586 56.1638 27.899 51.4328 27.899 46.4998C27.899 41.5668 29.8586 36.8358 33.3468 33.3476C36.835 29.8594 41.566 27.8998 46.499 27.8998C51.432 27.8998 56.163 29.8594 59.6512 33.3476C63.1394 36.8358 65.099 41.5668 65.099 46.4998ZM81.374 48.8248C81.9906 48.8248 82.582 48.5799 83.018 48.1438C83.454 47.7078 83.699 47.1164 83.699 46.4998C83.699 45.8832 83.454 45.2918 83.018 44.8558C82.582 44.4198 81.9906 44.1748 81.374 44.1748H76.724C76.1074 44.1748 75.516 44.4198 75.08 44.8558C74.644 45.2918 74.399 45.8832 74.399 46.4998C74.399 47.1164 74.644 47.7078 75.08 48.1438C75.516 48.5799 76.1074 48.8248 76.724 48.8248H81.374ZM46.499 74.3998C47.1156 74.3998 47.707 74.6448 48.143 75.0808C48.5791 75.5168 48.824 76.1082 48.824 76.7248V81.3748C48.824 81.9914 48.5791 82.5828 48.143 83.0188C47.707 83.4549 47.1156 83.6998 46.499 83.6998C45.8824 83.6998 45.291 83.4549 44.855 83.0188C44.419 82.5828 44.174 81.9914 44.174 81.3748V76.7248C44.174 76.1082 44.419 75.5168 44.855 75.0808C45.291 74.6448 45.8824 74.3998 46.499 74.3998ZM16.274 48.8248C16.8906 48.8248 17.482 48.5799 17.918 48.1438C18.354 47.7078 18.599 47.1164 18.599 46.4998C18.599 45.8832 18.354 45.2918 17.918 44.8558C17.482 44.4198 16.8906 44.1748 16.274 44.1748H11.452C10.8353 44.1748 10.244 44.4198 9.80793 44.8558C9.37191 45.2918 9.12695 45.8832 9.12695 46.4998C9.12695 47.1164 9.37191 47.7078 9.80793 48.1438C10.244 48.5799 10.8353 48.8248 11.452 48.8248H16.274ZM19.2779 19.2787C19.4939 19.0622 19.7504 18.8904 20.0329 18.7732C20.3154 18.656 20.6182 18.5956 20.924 18.5956C21.2298 18.5956 21.5326 18.656 21.8151 18.7732C22.0976 18.8904 22.3541 19.0622 22.5701 19.2787L27.2201 23.9287C27.6567 24.3653 27.9019 24.9574 27.9019 25.5748C27.9019 26.1922 27.6567 26.7843 27.2201 27.2209C26.7835 27.6575 26.1914 27.9027 25.574 27.9027C24.9566 27.9027 24.3645 27.6575 23.9279 27.2209L19.2779 22.5709C19.0614 22.3549 18.8896 22.0984 18.7724 21.8159C18.6552 21.5334 18.5948 21.2306 18.5948 20.9248C18.5948 20.619 18.6552 20.3162 18.7724 20.0337C18.8896 19.7512 19.0614 19.4947 19.2779 19.2787ZM22.5701 73.7209C22.1335 74.1575 21.5414 74.4027 20.924 74.4027C20.3066 74.4027 19.7145 74.1575 19.2779 73.7209C18.8413 73.2843 18.5961 72.6922 18.5961 72.0748C18.5961 71.4574 18.8413 70.8653 19.2779 70.4287L23.9279 65.7787C24.3645 65.3421 24.9566 65.0969 25.574 65.0969C26.1914 65.0969 26.7835 65.3421 27.2201 65.7787C27.6567 66.2153 27.9019 66.8074 27.9019 67.4248C27.9019 68.0422 27.6567 68.6343 27.2201 69.0709L22.5701 73.7209ZM73.7201 19.2787C73.5041 19.0622 73.2476 18.8904 72.9651 18.7732C72.6826 18.656 72.3798 18.5956 72.074 18.5956C71.7682 18.5956 71.4654 18.656 71.1829 18.7732C70.9004 18.8904 70.6439 19.0622 70.4279 19.2787L65.7779 23.9287C65.3413 24.3653 65.0961 24.9574 65.0961 25.5748C65.0961 26.1922 65.3413 26.7843 65.7779 27.2209C66.2145 27.6575 66.8066 27.9027 67.424 27.9027C68.0414 27.9027 68.6335 27.6575 69.0701 27.2209L73.7201 22.5709C73.9366 22.3549 74.1084 22.0984 74.2256 21.8159C74.3428 21.5334 74.4032 21.2306 74.4032 20.9248C74.4032 20.619 74.3428 20.3162 74.2256 20.0337C74.1084 19.7512 73.9366 19.4947 73.7201 19.2787ZM70.4279 73.7209C70.8645 74.1575 71.4566 74.4027 72.074 74.4027C72.6914 74.4027 73.2835 74.1575 73.7201 73.7209C74.1567 73.2843 74.4019 72.6922 74.4019 72.0748C74.4019 71.4574 74.1567 70.8653 73.7201 70.4287L69.0701 65.7787C68.6335 65.3421 68.0414 65.0969 67.424 65.0969C66.8066 65.0969 66.2145 65.3421 65.7779 65.7787C65.3413 66.2153 65.0961 66.8074 65.0961 67.4248C65.0961 68.0422 65.3413 68.6343 65.7779 69.0709L70.4279 73.7209Z" fill="url(#paint0_linear_9_187)"/>
</g>
<defs>
<filter id="filter0_d_9_187" x="-3" y="0" width="133" height="133" filterUnits="userSpaceOnUse" color-interpolation-filters="sRGB">
<feFlood flood-opacity="0" result="BackgroundImageFix"/>
<feColorMatrix in="SourceAlpha" type="matrix" values="0 0 0 0 0 0 0 0 0 0 0 0 0 0 0 0 0 0 127 0" result="hardAlpha"/>
<feOffset dx="17" dy="20"/>
<feGaussianBlur stdDeviation="10"/>
<feComposite in2="hardAlpha" operator="out"/>
<feColorMatrix type="matrix" values="0 0 0 0 0 0 0 0 0 0 0 0 0 0 0 0 0 0 0.25 0"/>
<feBlend mode="normal" in2="BackgroundImageFix" result="effect1_dropShadow_9_187"/>
<feBlend mode="normal" in="SourceGraphic" in2="effect1_dropShadow_9_187" result="shape"/>
</filter>
<linearGradient id="paint0_linear_9_187" x1="9.12695" y1="46.4998" x2="83.699" y2="46.4998" gradientUnits="userSpaceOnUse">
<stop offset="0.36" stop-color="#FFC6B3"/>
<stop offset="0.695" stop-color="#FFE58F"/>
</linearGradient>
</defs>
</svg>
