<svg width="90" height="80" viewBox="0 0 90 80" fill="none" xmlns="http://www.w3.org/2000/svg">
<g filter="url(#filter0_d_10_505)">
<path d="M58.4688 55.6874H24.9531C20.7804 55.6874 17.1891 54.5827 14.5646 52.4944C11.5778 50.1161 10 46.5854 10 42.2812C10 34.3083 16.2442 29.9913 22.6006 29.0503C23.4411 23.7419 25.6943 19.2018 29.189 15.8425C32.8986 12.2736 37.8524 10.29 43 10.3124C47.5762 10.3124 51.7966 11.8194 55.2048 14.6695C57.8096 16.8662 59.8151 19.6873 61.034 22.8692C64.9347 23.4892 68.4396 25.0838 71.0088 27.4273C74.2739 30.4063 76 34.4721 76 39.1874C76 43.8281 74.1463 48.0665 70.7806 51.1229C67.5386 54.0671 63.1661 55.6874 58.4688 55.6874Z" fill="white"/>
</g>
<path d="M21.0354 78.8838V76.2049L19.6174 77.0463L18.9234 76.6096V75.6681L21.0354 74.4068V72.6462L19.3458 73.6815V71.8162L17.6562 72.7007V75.2309L16.9579 75.7504L16.389 75.2811V73.5865L14.0345 74.9052L13.0098 74.4832V73.415L15.4111 72.076L13.8546 71.3064V70.3264L14.7513 69.8503L16.9537 71.1463L18.4794 70.266L18.4448 70.2385L16.8967 69.3418L18.4038 68.4007L16.8929 67.5208L14.6909 68.81L13.8546 68.4007V67.4262L15.3507 66.5907L13.0098 65.3011V64.2328L13.9902 63.7623L16.389 65.1127V63.391L17.0162 62.915L17.837 63.4134L17.8133 65.9921L19.3648 66.8885L19.3787 65.0675L21.0354 65.9541V64.194L18.9234 62.9319V61.9967L19.6174 61.5531L21.0354 62.3946V59.7216L21.8776 59.1624L22.725 59.7216V62.3946L24.3749 61.5367L25.2594 62.0516V62.893L22.725 64.194V65.9541L24.4146 64.9965V66.9117L26.1042 66.0314V63.2757L26.7188 62.9099L27.3714 63.2753V65.0354L29.839 63.7344L30.7506 64.2489V65.2453L28.4295 66.5843L29.9058 67.4097V68.3618L29.1328 68.7825L26.8827 67.4486L25.3286 68.4395L26.8277 69.3806L25.2822 70.277L26.8755 71.1184L29.1518 69.8571L29.9058 70.3707V71.2789L28.5034 72.076L30.7506 73.415V74.4667L29.6853 74.9048L27.3714 73.6426V75.3132L26.7293 75.7563L26.1042 75.3132V72.778L24.4146 71.8432V73.6038L22.725 72.6458V74.4063L24.837 75.6676V76.6641L24.1413 77.0459L22.725 76.2053V78.8842L21.8776 79.4376L21.0354 78.8838ZM20.4161 69.3388L21.2128 70.5672H22.6971L23.3784 69.3388L22.6587 68.0328H21.1743L20.4161 69.3388Z" fill="url(#paint0_linear_10_505)"/>
<path d="M42.1545 78.8838V76.2049L40.7365 77.0463L40.0425 76.6096V75.6681L42.1545 74.4068V72.6462L40.4649 73.6815V71.8162L38.7753 72.7007V75.2309L38.0771 75.7504L37.5081 75.2811V73.5865L35.1536 74.9052L34.1289 74.4832V73.415L36.5303 72.076L34.9737 71.3064V70.3264L35.8705 69.8503L38.0729 71.1463L39.5986 70.266L39.5639 70.2385L38.0158 69.3418L39.523 68.4007L38.012 67.5208L35.8101 68.81L34.9737 68.4007V67.4262L36.4698 66.5907L34.1289 65.3011V64.2328L35.1093 63.7623L37.5081 65.1127V63.391L38.1354 62.915L38.9561 63.4134L38.9324 65.9921L40.4839 66.8885L40.4979 65.0675L42.1545 65.9541V64.194L40.0425 62.9319V61.9967L40.7365 61.5531L42.1545 62.3946V59.7216L42.9968 59.1624L43.8441 59.7216V62.3946L45.494 61.5367L46.3785 62.0516V62.893L43.8441 64.194V65.9541L45.5337 64.9965V66.9117L47.2233 66.0314V63.2757L47.8379 62.9099L48.4905 63.2753V65.0354L50.9582 63.7344L51.8697 64.2489V65.2453L49.5486 66.5843L51.0249 67.4097V68.3618L50.2519 68.7825L48.0018 67.4486L46.4478 68.4395L47.9469 69.3806L46.4013 70.277L47.9946 71.1184L50.2709 69.8571L51.0249 70.3707V71.2789L49.6225 72.076L51.8697 73.415V74.4667L50.8044 74.9048L48.4905 73.6426V75.3132L47.8485 75.7563L47.2233 75.3132V72.778L45.5337 71.8432V73.6038L43.8441 72.6458V74.4063L45.9561 75.6676V76.6641L45.2604 77.0459L43.8441 76.2053V78.8842L42.9968 79.4376L42.1545 78.8838ZM41.5353 69.3388L42.3319 70.5672H43.8162L44.4976 69.3388L43.7778 68.0328H42.2935L41.5353 69.3388Z" fill="url(#paint1_linear_10_505)"/>
<path d="M63.2756 78.8838V76.2049L61.8576 77.0463L61.1636 76.6096V75.6681L63.2756 74.4068V72.6462L61.586 73.6815V71.8162L59.8964 72.7007V75.2309L59.1982 75.7504L58.6292 75.2811V73.5865L56.2747 74.9052L55.25 74.4832V73.415L57.6513 72.076L56.0948 71.3064V70.3264L56.9916 69.8503L59.1939 71.1463L60.7197 70.266L60.685 70.2385L59.1369 69.3418L60.644 68.4007L59.1331 67.5208L56.9312 68.81L56.0948 68.4007V67.4262L57.5909 66.5907L55.25 65.3011V64.2328L56.2304 63.7623L58.6292 65.1127V63.391L59.2565 62.915L60.0772 63.4134L60.0535 65.9921L61.605 66.8885L61.6189 65.0675L63.2756 65.9541V64.194L61.1636 62.9319V61.9967L61.8576 61.5531L63.2756 62.3946V59.7216L64.1179 59.1624L64.9652 59.7216V62.3946L66.6151 61.5367L67.4996 62.0516V62.893L64.9652 64.194V65.9541L66.6548 64.9965V66.9117L68.3444 66.0314V63.2757L68.959 62.9099L69.6116 63.2753V65.0354L72.0793 63.7344L72.9908 64.2489V65.2453L70.6697 66.5843L72.146 67.4097V68.3618L71.373 68.7825L69.1229 67.4486L67.5689 68.4395L69.068 69.3806L67.5224 70.277L69.1157 71.1184L71.392 69.8571L72.146 70.3707V71.2789L70.7436 72.076L72.9908 73.415V74.4667L71.9255 74.9048L69.6116 73.6426V75.3132L68.9696 75.7563L68.3444 75.3132V72.778L66.6548 71.8432V73.6038L64.9652 72.6458V74.4063L67.0772 75.6676V76.6641L66.3815 77.0459L64.9652 76.2053V78.8842L64.1179 79.4376L63.2756 78.8838ZM62.6564 69.3388L63.453 70.5672H64.9373L65.6187 69.3388L64.8989 68.0328H63.4146L62.6564 69.3388Z" fill="url(#paint2_linear_10_505)"/>
<defs>
<filter id="filter0_d_10_505" x="0.826" y="-7.194" width="88.308" height="88.308" filterUnits="userSpaceOnUse" color-interpolation-filters="sRGB">
<feFlood flood-opacity="0" result="BackgroundImageFix"/>
<feColorMatrix in="SourceAlpha" type="matrix" values="0 0 0 0 0 0 0 0 0 0 0 0 0 0 0 0 0 0 127 0" result="hardAlpha"/>
<feOffset dx="1.98" dy="3.96"/>
<feGaussianBlur stdDeviation="5.577"/>
<feComposite in2="hardAlpha" operator="out"/>
<feColorMatrix type="matrix" values="0 0 0 0 0 0 0 0 0 0 0 0 0 0 0 0 0 0 0.25 0"/>
<feBlend mode="normal" in2="BackgroundImageFix" result="effect1_dropShadow_10_505"/>
<feBlend mode="normal" in="SourceGraphic" in2="effect1_dropShadow_10_505" result="shape"/>
</filter>
<linearGradient id="paint0_linear_10_505" x1="21.8802" y1="59.1624" x2="21.8802" y2="79.4376" gradientUnits="userSpaceOnUse">
<stop stop-color="#9DF0FF"/>
<stop offset="1" stop-color="#8581FF"/>
</linearGradient>
<linearGradient id="paint1_linear_10_505" x1="42.9993" y1="59.1624" x2="42.9993" y2="79.4376" gradientUnits="userSpaceOnUse">
<stop stop-color="#9DF0FF"/>
<stop offset="1" stop-color="#8581FF"/>
</linearGradient>
<linearGradient id="paint2_linear_10_505" x1="64.1204" y1="59.1624" x2="64.1204" y2="79.4376" gradientUnits="userSpaceOnUse">
<stop stop-color="#9DF0FF"/>
<stop offset="1" stop-color="#8581FF"/>
</linearGradient>
</defs>
</svg>
