<svg width="294" height="297" viewBox="0 0 294 297" fill="none" xmlns="http://www.w3.org/2000/svg">
<g filter="url(#filter0_d_9_188)">
<path d="M142.498 28.5C144.388 28.5 146.2 29.2507 147.536 30.5869C148.872 31.9231 149.623 33.7353 149.623 35.625V49.875C149.623 51.7647 148.872 53.5769 147.536 54.9131C146.2 56.2493 144.388 57 142.498 57C140.608 57 138.796 56.2493 137.46 54.9131C136.124 53.5769 135.373 51.7647 135.373 49.875V35.625C135.373 33.7353 136.124 31.9231 137.46 30.5869C138.796 29.2507 140.608 28.5 142.498 28.5ZM199.498 142.5C199.498 157.617 193.493 172.116 182.803 182.805C172.113 193.495 157.615 199.5 142.498 199.5C127.381 199.5 112.882 193.495 102.193 182.805C91.5033 172.116 85.498 157.617 85.498 142.5C85.498 127.383 91.5033 112.884 102.193 102.195C112.882 91.5053 127.381 85.5 142.498 85.5C157.615 85.5 172.113 91.5053 182.803 102.195C193.493 112.884 199.498 127.383 199.498 142.5ZM249.373 149.625C251.263 149.625 253.075 148.874 254.411 147.538C255.747 146.202 256.498 144.39 256.498 142.5C256.498 140.61 255.747 138.798 254.411 137.462C253.075 136.126 251.263 135.375 249.373 135.375H235.123C233.233 135.375 231.421 136.126 230.085 137.462C228.749 138.798 227.998 140.61 227.998 142.5C227.998 144.39 228.749 146.202 230.085 147.538C231.421 148.874 233.233 149.625 235.123 149.625H249.373ZM142.498 228C144.388 228 146.2 228.751 147.536 230.087C148.872 231.423 149.623 233.235 149.623 235.125V249.375C149.623 251.265 148.872 253.077 147.536 254.413C146.2 255.749 144.388 256.5 142.498 256.5C140.608 256.5 138.796 255.749 137.46 254.413C136.124 253.077 135.373 251.265 135.373 249.375V235.125C135.373 233.235 136.124 231.423 137.46 230.087C138.796 228.751 140.608 228 142.498 228ZM49.873 149.625C51.7626 149.625 53.5749 148.874 54.9111 147.538C56.2473 146.202 56.998 144.39 56.998 142.5C56.998 140.61 56.2473 138.798 54.9111 137.462C53.5749 136.126 51.7626 135.375 49.873 135.375H35.0957C33.206 135.375 31.3938 136.126 30.0576 137.462C28.7214 138.798 27.9707 140.61 27.9707 142.5C27.9707 144.39 28.7214 146.202 30.0576 147.538C31.3938 148.874 33.206 149.625 35.0957 149.625H49.873ZM59.0785 59.0805C59.7403 58.417 60.5266 57.8905 61.3922 57.5313C62.2578 57.1722 63.1858 56.9873 64.123 56.9873C65.0601 56.9873 65.9881 57.1722 66.8537 57.5313C67.7194 57.8905 68.5056 58.417 69.1675 59.0805L83.4175 73.3305C84.7553 74.6684 85.507 76.4829 85.507 78.375C85.507 80.2671 84.7553 82.0816 83.4175 83.4195C82.0796 84.7574 80.265 85.509 78.373 85.509C76.4809 85.509 74.6663 84.7574 73.3285 83.4195L59.0785 69.1695C58.4149 68.5077 57.8885 67.7214 57.5293 66.8558C57.1701 65.9902 56.9852 65.0622 56.9852 64.125C56.9852 63.1878 57.1701 62.2598 57.5293 61.3942C57.8885 60.5286 58.4149 59.7424 59.0785 59.0805ZM69.1675 225.92C67.8296 227.257 66.015 228.009 64.123 228.009C62.2309 228.009 60.4163 227.257 59.0785 225.92C57.7406 224.582 56.989 222.767 56.989 220.875C56.989 218.983 57.7406 217.168 59.0785 215.831L73.3285 201.581C74.6663 200.243 76.4809 199.491 78.373 199.491C80.265 199.491 82.0796 200.243 83.4175 201.581C84.7553 202.918 85.507 204.733 85.507 206.625C85.507 208.517 84.7553 210.332 83.4175 211.67L69.1675 225.92ZM225.917 59.0805C225.256 58.417 224.469 57.8905 223.604 57.5313C222.738 57.1722 221.81 56.9873 220.873 56.9873C219.936 56.9873 219.008 57.1722 218.142 57.5313C217.277 57.8905 216.49 58.417 215.828 59.0805L201.578 73.3305C200.241 74.6684 199.489 76.4829 199.489 78.375C199.489 80.2671 200.241 82.0816 201.578 83.4195C202.916 84.7574 204.731 85.509 206.623 85.509C208.515 85.509 210.33 84.7574 211.667 83.4195L225.917 69.1695C226.581 68.5077 227.107 67.7214 227.467 66.8558C227.826 65.9902 228.011 65.0622 228.011 64.125C228.011 63.1878 227.826 62.2598 227.467 61.3942C227.107 60.5286 226.581 59.7424 225.917 59.0805ZM215.828 225.92C217.166 227.257 218.981 228.009 220.873 228.009C222.765 228.009 224.58 227.257 225.917 225.92C227.255 224.582 228.007 222.767 228.007 220.875C228.007 218.983 227.255 217.168 225.917 215.831L211.667 201.581C210.33 200.243 208.515 199.491 206.623 199.491C204.731 199.491 202.916 200.243 201.578 201.581C200.241 202.918 199.489 204.733 199.489 206.625C199.489 208.517 200.241 210.332 201.578 211.67L215.828 225.92Z" fill="url(#paint0_linear_9_188)"/>
</g>
<defs>
<filter id="filter0_d_9_188" x="-3" y="0" width="325" height="325" filterUnits="userSpaceOnUse" color-interpolation-filters="sRGB">
<feFlood flood-opacity="0" result="BackgroundImageFix"/>
<feColorMatrix in="SourceAlpha" type="matrix" values="0 0 0 0 0 0 0 0 0 0 0 0 0 0 0 0 0 0 127 0" result="hardAlpha"/>
<feOffset dx="17" dy="20"/>
<feGaussianBlur stdDeviation="10"/>
<feComposite in2="hardAlpha" operator="out"/>
<feColorMatrix type="matrix" values="0 0 0 0 0 0 0 0 0 0 0 0 0 0 0 0 0 0 0.25 0"/>
<feBlend mode="normal" in2="BackgroundImageFix" result="effect1_dropShadow_9_188"/>
<feBlend mode="normal" in="SourceGraphic" in2="effect1_dropShadow_9_188" result="shape"/>
</filter>
<linearGradient id="paint0_linear_9_188" x1="27.9707" y1="142.5" x2="256.498" y2="142.5" gradientUnits="userSpaceOnUse">
<stop offset="0.36" stop-color="#FFC6B3"/>
<stop offset="0.695" stop-color="#FFE58F"/>
</linearGradient>
</defs>
</svg>
