<svg width="170" height="128" viewBox="0 0 170 128" fill="none" xmlns="http://www.w3.org/2000/svg">
<g filter="url(#filter0_d_10_245)">
<path d="M95.499 9.2998C96.1156 9.2998 96.707 9.54476 97.143 9.98078C97.5791 10.4168 97.824 11.0082 97.824 11.6248V16.2748C97.824 16.8914 97.5791 17.4828 97.143 17.9188C96.707 18.3548 96.1156 18.5998 95.499 18.5998C94.8824 18.5998 94.291 18.3548 93.855 17.9188C93.419 17.4828 93.174 16.8914 93.174 16.2748V11.6248C93.174 11.0082 93.419 10.4168 93.855 9.98078C94.291 9.54476 94.8824 9.2998 95.499 9.2998ZM114.099 46.4998C114.099 51.4328 112.139 56.1638 108.651 59.652C105.163 63.1402 100.432 65.0998 95.499 65.0998C90.566 65.0998 85.835 63.1402 82.3468 59.652C78.8586 56.1638 76.899 51.4328 76.899 46.4998C76.899 41.5668 78.8586 36.8358 82.3468 33.3476C85.835 29.8594 90.566 27.8998 95.499 27.8998C100.432 27.8998 105.163 29.8594 108.651 33.3476C112.139 36.8358 114.099 41.5668 114.099 46.4998ZM130.374 48.8248C130.991 48.8248 131.582 48.5799 132.018 48.1438C132.454 47.7078 132.699 47.1164 132.699 46.4998C132.699 45.8832 132.454 45.2918 132.018 44.8558C131.582 44.4198 130.991 44.1748 130.374 44.1748H125.724C125.107 44.1748 124.516 44.4198 124.08 44.8558C123.644 45.2918 123.399 45.8832 123.399 46.4998C123.399 47.1164 123.644 47.7078 124.08 48.1438C124.516 48.5799 125.107 48.8248 125.724 48.8248H130.374ZM95.499 74.3998C96.1156 74.3998 96.707 74.6448 97.143 75.0808C97.5791 75.5168 97.824 76.1082 97.824 76.7248V81.3748C97.824 81.9914 97.5791 82.5828 97.143 83.0188C96.707 83.4549 96.1156 83.6998 95.499 83.6998C94.8824 83.6998 94.291 83.4549 93.855 83.0188C93.419 82.5828 93.174 81.9914 93.174 81.3748V76.7248C93.174 76.1082 93.419 75.5168 93.855 75.0808C94.291 74.6448 94.8824 74.3998 95.499 74.3998ZM65.274 48.8248C65.8906 48.8248 66.482 48.5799 66.918 48.1438C67.354 47.7078 67.599 47.1164 67.599 46.4998C67.599 45.8832 67.354 45.2918 66.918 44.8558C66.482 44.4198 65.8906 44.1748 65.274 44.1748H60.452C59.8353 44.1748 59.244 44.4198 58.8079 44.8558C58.3719 45.2918 58.127 45.8832 58.127 46.4998C58.127 47.1164 58.3719 47.7078 58.8079 48.1438C59.244 48.5799 59.8353 48.8248 60.452 48.8248H65.274ZM68.2779 19.2787C68.4939 19.0622 68.7504 18.8904 69.0329 18.7732C69.3154 18.656 69.6182 18.5956 69.924 18.5956C70.2298 18.5956 70.5326 18.656 70.8151 18.7732C71.0976 18.8904 71.3541 19.0622 71.5701 19.2787L76.2201 23.9287C76.6567 24.3653 76.9019 24.9574 76.9019 25.5748C76.9019 26.1922 76.6567 26.7843 76.2201 27.2209C75.7835 27.6575 75.1914 27.9027 74.574 27.9027C73.9566 27.9027 73.3645 27.6575 72.9279 27.2209L68.2779 22.5709C68.0614 22.3549 67.8896 22.0984 67.7724 21.8159C67.6552 21.5334 67.5948 21.2306 67.5948 20.9248C67.5948 20.619 67.6552 20.3162 67.7724 20.0337C67.8896 19.7512 68.0614 19.4947 68.2779 19.2787ZM71.5701 73.7209C71.1335 74.1575 70.5414 74.4027 69.924 74.4027C69.3066 74.4027 68.7145 74.1575 68.2779 73.7209C67.8413 73.2843 67.5961 72.6922 67.5961 72.0748C67.5961 71.4574 67.8413 70.8653 68.2779 70.4287L72.9279 65.7787C73.3645 65.3421 73.9566 65.0969 74.574 65.0969C75.1914 65.0969 75.7835 65.3421 76.2201 65.7787C76.6567 66.2153 76.9019 66.8074 76.9019 67.4248C76.9019 68.0422 76.6567 68.6343 76.2201 69.0709L71.5701 73.7209ZM122.72 19.2787C122.504 19.0622 122.248 18.8904 121.965 18.7732C121.683 18.656 121.38 18.5956 121.074 18.5956C120.768 18.5956 120.465 18.656 120.183 18.7732C119.9 18.8904 119.644 19.0622 119.428 19.2787L114.778 23.9287C114.341 24.3653 114.096 24.9574 114.096 25.5748C114.096 26.1922 114.341 26.7843 114.778 27.2209C115.214 27.6575 115.807 27.9027 116.424 27.9027C117.041 27.9027 117.634 27.6575 118.07 27.2209L122.72 22.5709C122.937 22.3549 123.108 22.0984 123.226 21.8159C123.343 21.5334 123.403 21.2306 123.403 20.9248C123.403 20.619 123.343 20.3162 123.226 20.0337C123.108 19.7512 122.937 19.4947 122.72 19.2787ZM119.428 73.7209C119.864 74.1575 120.457 74.4027 121.074 74.4027C121.691 74.4027 122.284 74.1575 122.72 73.7209C123.157 73.2843 123.402 72.6922 123.402 72.0748C123.402 71.4574 123.157 70.8653 122.72 70.4287L118.07 65.7787C117.634 65.3421 117.041 65.0969 116.424 65.0969C115.807 65.0969 115.214 65.3421 114.778 65.7787C114.341 66.2153 114.096 66.8074 114.096 67.4248C114.096 68.0422 114.341 68.6343 114.778 69.0709L119.428 73.7209Z" fill="url(#paint0_linear_10_245)"/>
</g>
<g filter="url(#filter1_d_10_245)">
<path d="M87.4375 104.375H36.6562C30.334 104.375 24.8926 102.701 20.916 99.5372C16.3906 95.9336 14 90.584 14 84.0625C14 71.9825 23.4609 65.4414 33.0918 64.0157C34.3652 55.9727 37.7793 49.0938 43.0742 44.0039C48.6948 38.5965 56.2006 35.5911 64 35.625C70.9336 35.625 77.3281 37.9082 82.4922 42.2266C86.4388 45.555 89.4774 49.8293 91.3242 54.6504C97.2344 55.5899 102.545 58.0059 106.438 61.5567C111.385 66.0704 114 72.2305 114 79.375C114 86.4063 111.191 92.8282 106.092 97.459C101.18 101.92 94.5547 104.375 87.4375 104.375Z" fill="white"/>
</g>
<defs>
<filter id="filter0_d_10_245" x="46" y="0" width="133" height="133" filterUnits="userSpaceOnUse" color-interpolation-filters="sRGB">
<feFlood flood-opacity="0" result="BackgroundImageFix"/>
<feColorMatrix in="SourceAlpha" type="matrix" values="0 0 0 0 0 0 0 0 0 0 0 0 0 0 0 0 0 0 127 0" result="hardAlpha"/>
<feOffset dx="17" dy="20"/>
<feGaussianBlur stdDeviation="10"/>
<feComposite in2="hardAlpha" operator="out"/>
<feColorMatrix type="matrix" values="0 0 0 0 0 0 0 0 0 0 0 0 0 0 0 0 0 0 0.25 0"/>
<feBlend mode="normal" in2="BackgroundImageFix" result="effect1_dropShadow_10_245"/>
<feBlend mode="normal" in="SourceGraphic" in2="effect1_dropShadow_10_245" result="shape"/>
</filter>
<filter id="filter1_d_10_245" x="0.1" y="9.1" width="133.8" height="133.8" filterUnits="userSpaceOnUse" color-interpolation-filters="sRGB">
<feFlood flood-opacity="0" result="BackgroundImageFix"/>
<feColorMatrix in="SourceAlpha" type="matrix" values="0 0 0 0 0 0 0 0 0 0 0 0 0 0 0 0 0 0 127 0" result="hardAlpha"/>
<feOffset dx="3" dy="6"/>
<feGaussianBlur stdDeviation="8.45"/>
<feComposite in2="hardAlpha" operator="out"/>
<feColorMatrix type="matrix" values="0 0 0 0 0 0 0 0 0 0 0 0 0 0 0 0 0 0 0.25 0"/>
<feBlend mode="normal" in2="BackgroundImageFix" result="effect1_dropShadow_10_245"/>
<feBlend mode="normal" in="SourceGraphic" in2="effect1_dropShadow_10_245" result="shape"/>
</filter>
<linearGradient id="paint0_linear_10_245" x1="58.127" y1="46.4998" x2="132.699" y2="46.4998" gradientUnits="userSpaceOnUse">
<stop offset="0.36" stop-color="#FFC6B3"/>
<stop offset="0.695" stop-color="#FFE58F"/>
</linearGradient>
</defs>
</svg>
