<svg width="200" height="200" viewBox="0 0 200 200" fill="none" xmlns="http://www.w3.org/2000/svg">
<path d="M98.6446 173.193C139.317 173.193 172.289 140.221 172.289 99.5482C172.289 58.8754 139.317 25.9036 98.6446 25.9036C57.9718 25.9036 25 58.8754 25 99.5482C25 140.221 57.9718 173.193 98.6446 173.193Z" fill="url(#paint0_linear_17_42)" fill-opacity="0.8"/>
<path d="M77.8492 90.4706C78.1008 84.1811 75.0705 78.9531 71.0807 78.7935C67.091 78.634 63.6527 83.6032 63.4011 89.8927C63.1496 96.1821 66.1799 101.41 70.1697 101.57C74.1594 101.729 77.5977 96.7601 77.8492 90.4706Z" fill="#00305F"/>
<path d="M126.991 101.994C130.977 101.82 133.986 96.5854 133.712 90.3019C133.437 84.0184 129.984 79.0657 125.998 79.2397C122.012 79.4138 119.003 84.6486 119.277 90.9321C119.552 97.2156 123.005 102.168 126.991 101.994Z" fill="#00305F"/>
<rect x="63.2816" y="121.381" width="70.4181" height="13.2226" rx="6.6113" fill="#00305F"/>
<path d="M74.9202 92.3104C76.0407 92.3104 76.9489 91.4021 76.9489 90.2817C76.9489 89.1613 76.0407 88.253 74.9202 88.253C73.7998 88.253 72.8916 89.1613 72.8916 90.2817C72.8916 91.4021 73.7998 92.3104 74.9202 92.3104Z" fill="white"/>
<path d="M122.812 92.3104C123.932 92.3104 124.84 91.4021 124.84 90.2817C124.84 89.1613 123.932 88.253 122.812 88.253C121.691 88.253 120.783 89.1613 120.783 90.2817C120.783 91.4021 121.691 92.3104 122.812 92.3104Z" fill="white"/>
<defs>
<linearGradient id="paint0_linear_17_42" x1="25" y1="99.5482" x2="172.289" y2="99.5482" gradientUnits="userSpaceOnUse">
<stop stop-color="#00B342"/>
<stop offset="1" stop-color="#006826"/>
</linearGradient>
</defs>
</svg>
